<svg width="33" height="17" viewBox="0 0 33 17" fill="none" xmlns="http://www.w3.org/2000/svg"><rect y=".286" width="33" height="16" rx="8" fill="#00A68A"/><path d="M11.902 12H9.98L6.873 6.6H6.83c.062.953.093 1.634.093 2.04V12H5.569V4.861h1.91l3.1 5.347h.034a43.356 43.356 0 0 1-.073-1.968V4.861h1.362V12zm6.038 0h-4.11V4.861h4.11v1.24h-2.597V7.67h2.417v1.24h-2.417v1.841h2.597V12zm8.573 0h-1.724l-.967-3.75a19.705 19.705 0 0 1-.185-.825 9.924 9.924 0 0 1-.147-.845c-.02.176-.068.46-.146.85-.078.387-.139.664-.18.83L22.2 12h-1.719l-1.82-7.139h1.488l.914 3.897c.159.72.274 1.343.346 1.87.02-.186.064-.472.132-.86a9.97 9.97 0 0 1 .2-.908l1.04-3.999h1.43l1.04 4c.047.178.104.452.172.82.068.368.12.683.156.947.033-.254.085-.57.156-.947.072-.381.137-.689.196-.923l.908-3.897h1.49L26.512 12z" fill="#fff"/></svg>