<svg width="30" height="30" viewBox="0 0 30 30" xmlns="http://www.w3.org/2000/svg"><title>Button Loader</title><g fill="none" fill-rule="evenodd"><animateTransform attributeName="transform" attributeType="XML" type="rotate" from="0 15 15" to="360 15 15" dur="1.5s" repeatCount="indefinite"/><path d="M4.313 19.836c-.525-.182-.853.114-.738.64l1.492 6.815c.236 1.074.777 1.123 1.207.112L7.56 24.39l2.807-1.086c1.032-.4 1.019-1.018-.012-1.375l-6.041-2.092zm21.581-9.59c.525.182.853-.114.738-.64L25.14 2.791c-.236-1.074-.777-1.123-1.207-.113l-1.285 3.015L19.84 6.78c-1.032.4-1.019 1.018.012 1.375l6.041 2.092z" fill="#fff"/><path d="M24.005 7.068A12.068 12.068 0 0 0 21.928 5.2 11.945 11.945 0 0 0 15 3C8.373 3 3 8.373 3 15m3.09 8.043A12.067 12.067 0 0 0 8.067 24.8a11.945 11.945 0 0 0 6.928 2.2c6.628 0 12-5.373 12-12" stroke="#fff" stroke-width="2"/></g></svg>