<svg xmlns="http://www.w3.org/2000/svg" width="648" height="108" viewBox="0 0 648 108"><path fill="#FFF" d="M38 30.9h30c6.9 0 11.6 1.8 14.6 4.9 2.6 2.6 4 6 4 10.4v.1c0 6.9-3.6 11.4-9.2 13.8L88 75.7H73.6l-9-13.6h-5.4v13.6H46.7V38.3L38 30.9zm29.4 21.5c4.2 0 6.7-2.1 6.7-5.3V47c0-3.5-2.6-5.3-6.7-5.3h-8.1v10.8h8.1zm22.2 1v-.1C89.6 40.4 100 30 113.8 30c13.8 0 24.1 10.3 24.1 23.2v.1c0 12.9-10.4 23.3-24.2 23.3-13.9 0-24.1-10.3-24.1-23.2m35.6 0v-.1c0-6.5-4.7-12.1-11.5-12.1s-11.3 5.5-11.3 12v.1c0 6.5 4.7 12.1 11.5 12.1s11.3-5.5 11.3-12m16 0v-.1c0-13.1 10.1-23.3 23.6-23.3 9.2 0 15.1 3.8 19 9.3l-9.3 7.2c-2.6-3.2-5.5-5.3-9.8-5.3-6.3 0-10.7 5.3-10.7 11.8v.1c0 6.7 4.4 12 10.7 12 4.7 0 7.4-2.2 10.1-5.4l9.3 6.7c-4.2 5.8-9.9 10.1-19.9 10.1-12.7.1-23-9.7-23-23.1m47.6-22.5h12.4v18.2l15.5-18.2h14.7l-17 19.3L232 75.7h-15l-11.2-16.6-4.6 5v11.6h-12.4zm47.1 0H272v10.6h-23.8v6.7h21.5V58h-21.5v7.2h24.1v10.5h-36.4zm53 10.9h-13.4V30.9h39.3v10.9h-13.5v33.9h-12.4zm33.4 33.9V30.9h3.3v41.7h26.3v3.1zm76.4 0L393 63.2h-26.4l-5.7 12.5h-3.5l20.9-45.1h3.2l20.9 45.1h-3.7zm-18.9-41.5l-11.8 26h23.6l-11.8-26zM449.9 76h-2.7l-13.1-38.9L420.9 76h-2.6L402 30.9h3.7l14.1 39.9 13.1-40h2.6l13.1 40 14.1-39.9h3.5zM492 57.9v17.8h-3.3V58l-19.2-27.1h4.1L490.4 55l16.9-24.1h3.9zm26.3 17.8V30.9h31.9V34h-28.6v17.6h25.7v3h-25.7v18h28.9v3.1zm74.5 0l-14.3-18.6h-14.7v18.6h-3.3V30.9h18.8c9.7 0 16 5.3 16 12.7v.1c0 7.5-5.6 11.8-13.1 12.8L597 75.7h-4.2zm-.7-31.9c0-6-4.7-9.8-12.9-9.8h-15.3v20.2H579c7.5 0 13.1-3.8 13.1-10.2v-.2zm8.2 29.4c0-2.7 2.1-4.9 4.9-4.9 2.7 0 4.8 2.2 4.8 4.8 0 2.6-2.1 4.8-4.9 4.8-2.6.1-4.8-2.1-4.8-4.7zm9.2 0c0-2.4-1.9-4.4-4.3-4.4-2.5 0-4.3 2-4.3 4.4 0 2.4 1.9 4.3 4.3 4.3s4.3-1.9 4.3-4.3zm-6.3-2.7h2.3c.7 0 1.2.2 1.5.5.3.3.4.6.4 1.1 0 .8-.5 1.3-1.2 1.5l1.4 1.9h-1.2l-1.2-1.8h-1v1.8h-1v-5zm2.3 2.5c.6 0 1-.3 1-.8s-.4-.8-1-.8h-1.3V73h1.3z"/></svg>