<svg width="24" height="24" viewBox="0 0 24 24" fill="none" xmlns="http://www.w3.org/2000/svg">
<path d="M7.93 19.4475C6.03 19.4475 4.43 18.66 3.5225 17.29C2.7025 16.04 2.09 13.7125 3.825 9.725C4.825 7.4525 6.8725 5.475 8.95 4.785C10.1875 4.38 11.34 4.45499 12.285 5.00249C12.6 5.18358 12.8679 5.43643 13.0669 5.7405C13.2658 6.04458 13.3902 6.3913 13.43 6.7525C13.655 8.38 12.535 10.38 11.4 11.55L10.3225 10.51C11.36 9.4425 12.0725 7.885 11.9425 6.9625C11.9333 6.82835 11.891 6.69857 11.8195 6.58473C11.748 6.47088 11.6494 6.3765 11.5325 6.31C10.82 5.8975 9.99 6.0325 9.4175 6.22C7.7375 6.76 6.015 8.45 5.2 10.3225C4.04 12.9925 3.8925 15.1175 4.7775 16.4675C5.395 17.4075 6.545 17.9475 7.93 17.9475C11.4 17.9475 17.11 14.6625 18.355 7.615L19.8325 7.865C18.4225 15.8575 12.025 19.4475 7.93 19.4475Z" fill="#E12015"/>
<path d="M15.565 16.0275L14.535 14.9375C16.5662 12.9736 17.9065 10.4045 18.355 7.615L19.8325 7.865C19.26 11.11 17.785 13.93 15.565 16.0275Z" fill="url(#paint0_linear)"/>
<path d="M22.465 20.9475H1.48755V22.4475H22.465V20.9475Z" fill="#E12015"/>
<path d="M22.5001 5.39C22.4996 6.14739 22.2745 6.88764 21.8534 7.51715C21.4323 8.14666 20.8339 8.63717 20.134 8.92667C19.4341 9.21617 18.6641 9.29166 17.9214 9.1436C17.1786 8.99553 16.4964 8.63057 15.961 8.09483C15.4256 7.5591 15.0611 6.87665 14.9135 6.13377C14.7659 5.39089 14.8419 4.62094 15.1319 3.92124C15.4218 3.22155 15.9127 2.62353 16.5425 2.2028C17.1723 1.78206 17.9127 1.5575 18.6701 1.5575C19.1733 1.5575 19.6715 1.65665 20.1363 1.84928C20.6012 2.04191 21.0235 2.32425 21.3792 2.68016C21.7349 3.03608 22.0169 3.45859 22.2093 3.92355C22.4016 4.38852 22.5004 4.88682 22.5001 5.39Z" fill="#990000"/>
<path d="M15.8375 2.7925H19.265C20.05 2.7925 20.59 2.9975 20.935 3.35C21.0893 3.50647 21.2093 3.69324 21.2876 3.89851C21.366 4.10378 21.4008 4.32306 21.39 4.5425V4.5575C21.4011 4.89741 21.3053 5.23222 21.116 5.51478C20.9267 5.79734 20.6536 6.01339 20.335 6.1325L21.5575 7.9175H19.9175L18.885 6.365H18.2625V7.9175H16.8425V3.64L15.8375 2.7925ZM19.2 5.26C19.6825 5.26 19.95 5.025 19.95 4.6525V4.6375C19.95 4.235 19.6575 4.03 19.1825 4.03H18.2625V5.26H19.2Z" fill="#FEFEFE"/>
<defs>
<linearGradient id="paint0_linear" x1="15.67" y1="15.2875" x2="18.2525" y2="9.7775" gradientUnits="userSpaceOnUse">
<stop stop-color="#E12015"/>
<stop offset="0.74" stop-color="#990000"/>
</linearGradient>
</defs>
</svg>
