<svg width="24" height="24" viewBox="0 0 24 24" fill="none" xmlns="http://www.w3.org/2000/svg">
<path d="M17.9476 8.67499V21.055L6.05006 21.135L6.00256 6.12249H13.4951V4.62249H4.49756L4.55506 22.645L19.4476 22.545V8.67499H17.9476Z" fill="#E12015"/>
<path d="M19.4476 8.675H17.9476V15.465H19.4476V8.675Z" fill="url(#paint0_linear)"/>
<path d="M22.5001 5.38999C22.4996 6.14739 22.2745 6.88764 21.8534 7.51715C21.4323 8.14666 20.8339 8.63717 20.134 8.92667C19.4342 9.21617 18.6641 9.29166 17.9214 9.1436C17.1786 8.99553 16.4964 8.63056 15.961 8.09483C15.4256 7.55909 15.0611 6.87665 14.9135 6.13377C14.7659 5.39089 14.8419 4.62094 15.1319 3.92124C15.4218 3.22155 15.9127 2.62353 16.5425 2.20279C17.1723 1.78206 17.9127 1.5575 18.6701 1.5575C19.1733 1.5575 19.6715 1.65664 20.1363 1.84928C20.6012 2.04191 21.0235 2.32425 21.3792 2.68016C21.7349 3.03607 22.0169 3.45858 22.2093 3.92355C22.4016 4.38851 22.5004 4.88682 22.5001 5.38999Z" fill="#990000"/>
<path d="M15.8375 2.7925H19.265C20.05 2.7925 20.59 2.9975 20.935 3.35C21.0892 3.50646 21.2093 3.69324 21.2876 3.8985C21.3659 4.10377 21.4008 4.32306 21.39 4.5425V4.5575C21.401 4.8974 21.3052 5.23222 21.1159 5.51478C20.9267 5.79733 20.6535 6.01338 20.335 6.1325L21.5575 7.9175H19.9175L18.885 6.365H18.2625V7.9175H16.8425V3.64L15.8375 2.7925ZM19.2 5.26C19.6825 5.26 19.95 5.025 19.95 4.6525V4.6375C19.95 4.235 19.6575 4.03 19.1825 4.03H18.2625V5.26H19.2Z" fill="#FEFEFE"/>
<defs>
<linearGradient id="paint0_linear" x1="18.6976" y1="14.86" x2="18.6976" y2="11.3" gradientUnits="userSpaceOnUse">
<stop stop-color="#E12015"/>
<stop offset="1" stop-color="#990000"/>
</linearGradient>
</defs>
</svg>
