<svg width="24" height="24" viewBox="0 0 24 24" fill="none" xmlns="http://www.w3.org/2000/svg">
<path d="M20.0025 8.44251H18.5825C18.5825 8.44251 18.5825 9.72501 18.5825 10.4425C18.5825 12.89 16.3325 14.875 13.875 14.875H10.58V18.9475C10.58 18.9475 6.48746 14.6875 5.94246 14.0925C5.06996 13.15 4.45996 12.1675 4.45996 10.445C4.4593 9.86262 4.57349 9.28582 4.79598 8.74761C5.01847 8.2094 5.3449 7.72034 5.75659 7.30841C6.16829 6.89648 6.65716 6.56978 7.19525 6.34698C7.73334 6.12419 8.31007 6.00968 8.89246 6.01001H13.6425V4.51001H8.89246C7.31904 4.51133 5.81047 5.13713 4.69813 6.24995C3.58579 7.36276 2.96062 8.87159 2.95996 10.445C2.95996 12.7675 3.91246 14.1075 4.84246 15.1125C5.39496 15.71 9.32996 19.8125 9.48746 19.985L12.08 22.6775V16.3775H13.8625C17.2375 16.3775 20.0975 13.66 20.0975 10.445V8.94501H20.04C20.03 8.77334 20.0175 8.60584 20.0025 8.44251Z" fill="#E12015"/>
<path d="M19.955 8.0475H18.57V10.4725C18.5664 11.0281 18.4508 11.5773 18.23 12.0872C18.0092 12.5971 17.6878 13.0572 17.285 13.44L18.76 14.065C19.6137 13.0509 20.0867 11.7706 20.0975 10.445V8.945H20.04C20.0225 8.6325 19.9875 8.335 19.955 8.0475Z" fill="url(#paint0_linear)"/>
<path d="M22.5 5.39C22.4995 6.14739 22.2744 6.88764 21.8533 7.51715C21.4321 8.14666 20.8338 8.63717 20.1339 8.92667C19.434 9.21617 18.664 9.29166 17.9212 9.1436C17.1785 8.99554 16.4962 8.63057 15.9609 8.09483C15.4255 7.5591 15.061 6.87665 14.9134 6.13377C14.7658 5.3909 14.8418 4.62094 15.1317 3.92124C15.4217 3.22155 15.9126 2.62353 16.5424 2.2028C17.1722 1.78206 17.9126 1.5575 18.67 1.5575C19.1731 1.5575 19.6714 1.65665 20.1362 1.84928C20.6011 2.04191 21.0234 2.32425 21.3791 2.68016C21.7348 3.03608 22.0168 3.45859 22.2091 3.92355C22.4015 4.38852 22.5003 4.88683 22.5 5.39Z" fill="#990000"/>
<path d="M15.8375 2.7925H19.265C20.05 2.7925 20.59 2.9975 20.935 3.35C21.0892 3.50647 21.2093 3.69324 21.2876 3.89851C21.3659 4.10378 21.4008 4.32306 21.39 4.5425V4.5575C21.401 4.89741 21.3052 5.23222 21.1159 5.51478C20.9267 5.79734 20.6535 6.01339 20.335 6.1325L21.5575 7.9175H19.9175L18.885 6.365H18.2625V7.9175H16.8425V3.64L15.8375 2.7925ZM19.2 5.26C19.6825 5.26 19.95 5.025 19.95 4.6525V4.6375C19.95 4.235 19.6575 4.03 19.1825 4.03H18.2625V5.26H19.2Z" fill="#FEFEFE"/>
<defs>
<linearGradient id="paint0_linear" x1="18.69" y1="13.3925" x2="18.69" y2="11.81" gradientUnits="userSpaceOnUse">
<stop stop-color="#E12015"/>
<stop offset="1" stop-color="#990000"/>
</linearGradient>
</defs>
</svg>
