<svg width="236" height="207" viewBox="0 0 236 207" xmlns="http://www.w3.org/2000/svg" xmlns:xlink="http://www.w3.org/1999/xlink"><svg width="170" height="50" viewBox="0 0 170 50" xmlns="http://www.w3.org/2000/svg"><title>google-play-badge-desktop</title><defs><linearGradient x1="91.488%" y1="4.948%" x2="-38.352%" y2="71.907%" id="a"><stop stop-color="#00A0FF" offset="0%"/><stop stop-color="#00A1FF" offset="1%"/><stop stop-color="#00BEFF" offset="26%"/><stop stop-color="#00D2FF" offset="51%"/><stop stop-color="#00DFFF" offset="76%"/><stop stop-color="#00E3FF" offset="100%"/></linearGradient><linearGradient x1="107.685%" y1="50%" x2="-130.64%" y2="50%" id="b"><stop stop-color="#FFE000" offset="0%"/><stop stop-color="#FFBD00" offset="41%"/><stop stop-color="#FFA500" offset="78%"/><stop stop-color="#FF9C00" offset="100%"/></linearGradient><linearGradient x1="86.219%" y1="17.877%" x2="-50.15%" y2="194.703%" id="c"><stop stop-color="#FF3A44" offset="0%"/><stop stop-color="#C31162" offset="100%"/></linearGradient><linearGradient x1="-18.754%" y1="-54.052%" x2="42.121%" y2="24.917%" id="d"><stop stop-color="#32A071" offset="0%"/><stop stop-color="#2DA771" offset="7%"/><stop stop-color="#15CF74" offset="48%"/><stop stop-color="#06E775" offset="80%"/><stop stop-color="#00F076" offset="100%"/></linearGradient></defs><g fill="none"><path d="M6.293 0h157.414A6.293 6.293 0 0 1 170 6.293v37.414A6.293 6.293 0 0 1 163.707 50H6.293A6.293 6.293 0 0 1 0 43.707V6.293A6.293 6.293 0 0 1 6.293 0z" fill="#000"/><path d="M59.363 12.548a3.742 3.742 0 0 1-.94 2.663 3.533 3.533 0 0 1-2.753 1.185c-1.587-.013-3.012-1.037-3.616-2.598-.604-1.56-.27-3.355.85-4.552a3.643 3.643 0 0 1 2.766-1.199 3.682 3.682 0 0 1 1.54.333c.453.195.856.5 1.176.892l-.663.706a2.438 2.438 0 0 0-2.053-.945 2.821 2.821 0 0 0-2.098.937 3.2 3.2 0 0 0-.819 2.258c-.017 1.27.686 2.425 1.781 2.929 1.096.503 2.368.257 3.226-.625.386-.444.608-1.02.626-1.625H55.67v-.957h3.643c.033.197.05.398.05.599zm5.733-3.329h-3.38v2.53h3.08v.959h-3.08v2.53h3.38v.985h-4.381v-7.99h4.381v.986zm4.106 7.004h-.964V9.219h-2.103v-.985h5.22v.985h-2.153v7.004zm5.834 0v-7.99H76v7.99h-.964zm5.245 0h-.964V9.219h-2.103v-.985h5.158v.985h-2.09v7.004zm11.869-1.039c-1.524 1.612-3.985 1.612-5.508 0-1.477-1.663-1.477-4.262 0-5.925a3.768 3.768 0 0 1 2.754-1.22c1.034 0 2.025.44 2.754 1.22 1.483 1.66 1.483 4.265 0 5.925zm-4.795-.666a2.77 2.77 0 0 0 4.081 0c1.108-1.299 1.108-3.28 0-4.58a2.77 2.77 0 0 0-4.08 0c-1.109 1.3-1.109 3.281 0 4.58zm7.261 1.705v-7.99h1.177l3.655 6.219V8.234h.964v7.989H99.41l-3.82-6.511v6.51h-.976z" stroke="#FFF" stroke-width=".577" fill="#FFF"/><path d="M85.301 27.874c-2.935.014-5.304 2.554-5.295 5.676.01 3.122 2.393 5.646 5.329 5.642 2.935-.005 5.312-2.538 5.312-5.66.02-1.512-.537-2.968-1.545-4.035-1.008-1.066-2.38-1.652-3.8-1.623zm0 9.094c-1.323.098-2.568-.673-3.14-1.946-.571-1.273-.353-2.788.55-3.82.903-1.034 2.308-1.374 3.543-.86 1.235.515 2.048 1.78 2.052 3.19a3.4 3.4 0 0 1-.821 2.392 3.001 3.001 0 0 1-2.184 1.044zm-11.655-9.094c-2.936.007-5.312 2.544-5.307 5.667.004 3.124 2.387 5.653 5.324 5.65 2.937-.002 5.316-2.535 5.316-5.658.021-1.513-.536-2.969-1.544-4.036-1.008-1.066-2.38-1.652-3.801-1.623h.012zm0 9.094c-1.323.104-2.572-.664-3.148-1.936-.575-1.272-.36-2.789.541-3.825.902-1.035 2.308-1.379 3.544-.865 1.237.513 2.052 1.779 2.055 3.19a3.4 3.4 0 0 1-.82 2.392 3.001 3.001 0 0 1-2.184 1.044h.012zm-13.883-7.35v2.397h5.408a5.177 5.177 0 0 1-1.251 3.022c-1.095 1.186-2.609 1.824-4.17 1.758-3.318 0-6.008-2.862-6.008-6.391 0-3.53 2.69-6.392 6.009-6.392 1.524-.026 2.997.591 4.093 1.718l1.59-1.691c-1.496-1.611-3.542-2.51-5.67-2.49-3.031-.126-5.884 1.523-7.434 4.295a9.285 9.285 0 0 0 0 8.999c1.55 2.772 4.403 4.42 7.433 4.295 2.168.105 4.273-.794 5.771-2.463 1.312-1.533 2.012-3.547 1.953-5.619a8.3 8.3 0 0 0-.125-1.505l-7.599.067zm56.722 1.864c-.669-2.091-2.481-3.527-4.557-3.608-1.384-.003-2.707.603-3.656 1.675-.949 1.072-1.438 2.514-1.351 3.984-.031 1.503.514 2.956 1.51 4.023.997 1.067 2.359 1.658 3.772 1.636 1.78.01 3.444-.93 4.432-2.504l-1.815-1.331c-.551.977-1.545 1.574-2.617 1.571-1.11.045-2.132-.636-2.578-1.718l7.123-3.129-.263-.599zm-7.26 1.89a3.227 3.227 0 0 1 .736-2.271 2.85 2.85 0 0 1 2.042-1.03c.826-.058 1.604.413 1.978 1.198l-4.757 2.104zm-5.785 5.488h2.34V22.215h-2.34v16.644zm-3.831-9.72h-.088c-.713-.849-1.734-1.333-2.804-1.332-2.841.147-5.075 2.64-5.075 5.666 0 3.026 2.234 5.519 5.075 5.665 1.074.02 2.1-.468 2.804-1.331h.075v.812c0 2.17-1.089 3.329-2.841 3.329-1.194-.03-2.253-.824-2.68-2.01l-2.04.905c.786 2.033 2.653 3.355 4.72 3.342 2.741 0 5.007-1.718 5.007-5.899v-10.08H99.61v.933zm-2.68 7.829c-1.673-.157-2.957-1.648-2.957-3.435 0-1.788 1.284-3.279 2.958-3.436a2.94 2.94 0 0 1 2.102 1.08c.535.648.801 1.497.74 2.356a3.3 3.3 0 0 1-.737 2.367 2.912 2.912 0 0 1-2.118 1.068h.013zm30.521-14.753h-5.596V38.86h2.341v-6.312h3.268c1.818.14 3.557-.814 4.506-2.47a5.463 5.463 0 0 0 0-5.392c-.949-1.656-2.688-2.61-4.506-2.47h-.013zm0 7.989h-3.267v-5.672h3.317c1.483 0 2.685 1.278 2.685 2.856 0 1.577-1.202 2.856-2.685 2.856l-.05-.04zm14.434-2.397c-1.742-.11-3.38.888-4.169 2.543l2.078.919c.419-.82 1.254-1.301 2.128-1.225a2.16 2.16 0 0 1 1.675.514c.47.403.77.99.83 1.63v.173a4.924 4.924 0 0 0-2.442-.64c-2.24 0-4.507 1.332-4.507 3.742a3.95 3.95 0 0 0 1.214 2.703 3.484 3.484 0 0 0 2.667.959c1.2.092 2.353-.521 3.005-1.598h.075v1.332h2.253v-6.405c0-2.916-2.078-4.607-4.745-4.607l-.062-.04zm-.288 9.121c-.764 0-1.828-.413-1.828-1.411 0-1.332 1.327-1.771 2.504-1.771a3.96 3.96 0 0 1 2.128.559c-.162 1.49-1.331 2.626-2.741 2.663l-.063-.04zm13.307-8.721l-2.679 7.216h-.075l-2.779-7.216h-2.504l4.169 10.092-2.379 5.606h2.442l6.409-15.698h-2.604zM133.86 38.86h2.34V22.215h-2.34v16.644z" fill="#FFF"/><path d="M1.07.953a2.775 2.775 0 0 0-.577 1.864V32.27a2.775 2.775 0 0 0 .576 1.864l.088.093 15.51-16.484v-.386L1.157.86l-.088.093z" fill="url(#a)" transform="translate(12 8)"/><path d="M21.8 23.242l-5.133-5.499v-.386l5.133-5.512.113.066 6.146 3.715c1.753 1.052 1.753 2.783 0 3.848l-6.121 3.702-.138.066z" fill="url(#b)" transform="translate(12 8)"/><path d="M21.95 23.163l-5.283-5.62L1.07 34.134c.737.69 1.831.723 2.604.08l18.29-11.051" fill="url(#c)" transform="translate(12 8)"/><path d="M21.95 11.924L3.66.873a1.948 1.948 0 0 0-2.603.08l15.61 16.59 5.283-5.619z" fill="url(#d)" transform="translate(12 8)"/><path d="M33.8 31.043L15.66 42.028c-.742.59-1.76.59-2.503 0l-.088.093.088.093a1.98 1.98 0 0 0 2.504 0l18.29-11.051-.151-.12z" fill="#000" opacity=".2"/><path d="M13.07 41.948a2.775 2.775 0 0 1-.577-1.864v.2a2.775 2.775 0 0 0 .576 1.864l.088-.094-.088-.106zm26.99-14.674l-6.26 3.769.113.12 6.146-3.702c.71-.355 1.188-1.086 1.252-1.918-.143.753-.605 1.392-1.252 1.731z" fill="#000" opacity=".12"/><path d="M15.66 9.06l24.4 14.752c.646.34 1.108.98 1.251 1.731-.064-.83-.542-1.562-1.252-1.917L15.661 8.873C13.908 7.82 12.48 8.7 12.48 10.83v.2c.039-2.144 1.441-3.023 3.181-1.97z" fill="#FFF" opacity=".25"/></g></svg><svg width="170" height="50" viewBox="0 0 170 50" y="50" xmlns="http://www.w3.org/2000/svg"><title>app-store-badge-desktop</title><g fill="none"><path d="M164.327 50H4.908C2.2 50 0 47.757 0 44.988V5.018C0 2.252 2.2 0 4.908 0h159.418c2.712 0 4.902 2.25 4.902 5.019l.001 39.969c0 2.769-2.191 5.012-4.902 5.012z" fill="#000"/><path d="M36.483 25.689c-.037-4.302 3.34-6.394 3.494-6.492-1.912-2.94-4.876-3.342-5.917-3.374-2.489-.276-4.903 1.571-6.17 1.571-1.294 0-3.246-1.544-5.35-1.499-2.708.044-5.241 1.698-6.63 4.266-2.867 5.236-.73 12.93 2.018 17.162 1.374 2.073 2.98 4.387 5.081 4.306 2.056-.09 2.824-1.383 5.305-1.383 2.459 0 3.18 1.383 5.324 1.33 2.206-.037 3.595-2.081 4.921-4.173 1.588-2.376 2.226-4.715 2.251-4.835-.051-.019-4.285-1.723-4.327-6.88zm-4.048-12.65c1.105-1.459 1.862-3.443 1.652-5.457-1.6.074-3.603 1.167-4.755 2.594-1.02 1.257-1.931 3.318-1.696 5.256 1.798.142 3.644-.957 4.798-2.393zM66.499 40.394h-2.902l-1.59-5.059H56.48l-1.514 5.059H52.14l5.475-17.223h3.382l5.502 17.223zm-4.972-7.182l-1.437-4.497c-.153-.46-.438-1.541-.858-3.245h-.051c-.168.733-.437 1.815-.808 3.245l-1.412 4.497h4.565zm19.052.82c0 2.112-.563 3.781-1.69 5.007-1.01 1.091-2.264 1.636-3.76 1.636-1.616 0-2.776-.588-3.483-1.763h-.051v6.542H68.87v-13.39c0-1.329-.035-2.691-.101-4.09h2.396l.152 1.97h.051c.91-1.484 2.288-2.224 4.139-2.224 1.447 0 2.654.578 3.62 1.737.97 1.16 1.452 2.684 1.452 4.575zm-2.776.1c0-1.208-.268-2.205-.807-2.989-.59-.818-1.38-1.227-2.372-1.227-.673 0-1.284.228-1.83.677-.546.453-.904 1.044-1.072 1.777a3.655 3.655 0 0 0-.126.841v2.07c0 .904.273 1.667.82 2.29.547.622 1.258.932 2.132.932 1.027 0 1.825-.401 2.397-1.2.572-.802.858-1.858.858-3.17zm16.883-.1c0 2.112-.564 3.781-1.693 5.007-1.008 1.091-2.262 1.636-3.759 1.636-1.615 0-2.776-.588-3.481-1.763h-.051v6.542h-2.726v-13.39a86.81 86.81 0 0 0-.1-4.09h2.395l.153 1.97h.05c.908-1.484 2.287-2.224 4.139-2.224 1.446 0 2.653.578 3.622 1.737.965 1.16 1.45 2.684 1.45 4.575zm-2.777.1c0-1.208-.27-2.205-.809-2.989-.589-.818-1.377-1.227-2.37-1.227-.674 0-1.284.228-1.83.677-.548.453-.904 1.044-1.072 1.777a3.727 3.727 0 0 0-.126.841v2.07c0 .904.273 1.667.818 2.29.547.62 1.257.932 2.134.932 1.026 0 1.825-.401 2.397-1.2.572-.802.858-1.858.858-3.17zm18.547 1.432c0 1.465-.502 2.657-1.51 3.577-1.108 1.006-2.65 1.508-4.633 1.508-1.83 0-3.297-.357-4.408-1.073l.631-2.3a7.4 7.4 0 0 0 3.94 1.1c1.026 0 1.824-.235 2.398-.704.572-.468.857-1.097.857-1.881 0-.7-.236-1.288-.707-1.766-.47-.477-1.253-.921-2.347-1.332-2.978-1.124-4.465-2.772-4.465-4.938 0-1.416.521-2.577 1.565-3.48 1.04-.905 2.429-1.358 4.164-1.358 1.548 0 2.834.273 3.86.818l-.681 2.25c-.959-.528-2.043-.792-3.255-.792-.959 0-1.708.239-2.245.715a2.057 2.057 0 0 0-.68 1.56c0 .68.259 1.243.78 1.686.454.41 1.278.852 2.474 1.33 1.464.596 2.539 1.293 3.23 2.093.689.798 1.033 1.795 1.033 2.986zm9.01-5.518h-3.004v6.03c0 1.533.53 2.3 1.59 2.3.487 0 .891-.044 1.21-.13l.076 2.096c-.537.203-1.244.306-2.12.306-1.075 0-1.916-.333-2.523-.997-.605-.665-.909-1.78-.909-3.348v-6.26h-1.79v-2.07h1.79v-2.276l2.676-.818v3.092h3.004v2.076zm13.551 4.036c0 1.91-.54 3.476-1.615 4.702-1.129 1.262-2.627 1.89-4.494 1.89-1.8 0-3.232-.604-4.3-1.812-1.07-1.21-1.604-2.735-1.604-4.574 0-1.925.55-3.5 1.653-4.727 1.1-1.226 2.586-1.84 4.453-1.84 1.8 0 3.247.605 4.34 1.815 1.046 1.173 1.567 2.689 1.567 4.546zm-2.827.09c0-1.146-.242-2.128-.731-2.947-.571-.992-1.388-1.486-2.446-1.486-1.096 0-1.928.495-2.499 1.486-.49.82-.731 1.818-.731 2.998 0 1.146.242 2.128.731 2.946.59.991 1.412 1.486 2.474 1.486 1.04 0 1.857-.505 2.447-1.512.502-.835.755-1.827.755-2.972zm11.684-3.771a4.674 4.674 0 0 0-.859-.076c-.958 0-1.7.366-2.221 1.1-.454.647-.681 1.465-.681 2.453v6.516h-2.724l.026-8.508c0-1.432-.035-2.735-.103-3.91h2.374l.1 2.376h.075c.287-.816.741-1.474 1.362-1.967.607-.444 1.263-.665 1.97-.665.252 0 .479.018.68.05v2.631zm12.186 3.196c0 .494-.032.911-.1 1.251h-8.174c.032 1.227.427 2.166 1.186 2.813.689.578 1.58.868 2.674.868 1.21 0 2.314-.195 3.307-.588l.427 1.916c-1.16.512-2.53.767-4.111.767-1.902 0-3.395-.566-4.481-1.699-1.084-1.132-1.627-2.653-1.627-4.56 0-1.873.505-3.433 1.516-4.677 1.058-1.328 2.488-1.991 4.288-1.991 1.767 0 3.105.663 4.014 1.991.72 1.055 1.081 2.36 1.081 3.909zm-2.598-.716c.018-.818-.16-1.524-.53-2.121-.47-.768-1.195-1.15-2.17-1.15-.891 0-1.616.373-2.17 1.124-.453.597-.723 1.312-.806 2.146h5.676v.001zM60.383 12.48c0 1.524-.452 2.67-1.353 3.44-.835.711-2.021 1.067-3.558 1.067-.762 0-1.414-.034-1.96-.101V8.563a14.29 14.29 0 0 1 2.308-.176c1.464 0 2.567.322 3.311.967.834.728 1.252 1.77 1.252 3.126zm-1.413.038c0-.987-.258-1.745-.775-2.273-.516-.526-1.27-.79-2.264-.79-.422 0-.781.028-1.079.088v6.327c.165.026.467.038.905.038 1.026 0 1.817-.289 2.374-.866.558-.577.839-1.419.839-2.524zm8.903 1.293c0 .938-.264 1.707-.794 2.31-.555.62-1.29.93-2.208.93-.884 0-1.589-.297-2.114-.892-.524-.594-.786-1.344-.786-2.247 0-.945.27-1.72.811-2.322.542-.602 1.271-.903 2.19-.903.884 0 1.595.296 2.133.89.511.577.768 1.323.768 2.234zm-1.39.044c0-.563-.12-1.046-.359-1.448-.281-.487-.681-.73-1.202-.73-.538 0-.947.243-1.228.73-.24.402-.36.893-.36 1.473 0 .563.12 1.045.36 1.448.29.486.694.73 1.216.73.511 0 .913-.248 1.201-.743.248-.41.372-.897.372-1.46zm11.434-3.044l-1.886 6.1h-1.227l-.781-2.648a20.03 20.03 0 0 1-.485-1.971h-.024c-.117.67-.278 1.326-.485 1.97l-.83 2.65h-1.24l-1.774-6.101h1.377l.681 2.9c.165.686.3 1.34.41 1.958h.024c.1-.51.264-1.16.497-1.945l.855-2.912h1.092l.82 2.85c.198.695.359 1.364.483 2.009h.037c.09-.628.227-1.297.409-2.009l.731-2.85h1.316zm6.946 6.101h-1.34v-3.494c0-1.077-.404-1.616-1.215-1.616-.397 0-.718.148-.968.444a1.587 1.587 0 0 0-.372 1.046v3.619h-1.34v-4.357c0-.536-.016-1.117-.048-1.746h1.178l.062.954h.037a1.95 1.95 0 0 1 .694-.736c.364-.228.77-.343 1.215-.343.562 0 1.03.184 1.402.552.463.452.695 1.126.695 2.022v3.655zm3.695 0h-1.34v-8.9h1.34zm7.887-3.101c0 .938-.264 1.707-.793 2.31-.555.62-1.292.93-2.208.93-.886 0-1.59-.297-2.115-.892-.524-.594-.786-1.344-.786-2.247 0-.945.27-1.72.812-2.322.542-.602 1.27-.903 2.187-.903.886 0 1.596.296 2.135.89.512.577.768 1.323.768 2.234zm-1.39.044c0-.563-.12-1.046-.36-1.448-.28-.487-.681-.73-1.2-.73-.54 0-.949.243-1.229.73-.24.402-.359.893-.359 1.473 0 .563.12 1.045.36 1.448.29.486.693.73 1.215.73.511 0 .912-.248 1.2-.743.25-.41.373-.897.373-1.46zm7.875 3.057h-1.203l-.1-.703h-.037c-.412.56-.998.841-1.76.841-.57 0-1.03-.185-1.376-.552-.315-.334-.472-.75-.472-1.243 0-.745.307-1.313.925-1.707.616-.393 1.483-.586 2.599-.577v-.114c0-.804-.417-1.205-1.252-1.205-.594 0-1.119.152-1.571.452l-.273-.89c.56-.351 1.252-.527 2.068-.527 1.575 0 2.365.841 2.365 2.523v2.247c0 .61.03 1.095.087 1.455zm-1.392-2.097v-.94c-1.478-.027-2.217.384-2.217 1.229 0 .318.084.556.257.716a.93.93 0 0 0 .655.238c.294 0 .568-.095.82-.282a1.157 1.157 0 0 0 .485-.96zm9.005 2.097h-1.189l-.063-.98h-.037c-.38.746-1.026 1.118-1.935 1.118-.726 0-1.331-.288-1.81-.865-.48-.578-.719-1.327-.719-2.247 0-.988.26-1.788.781-2.398.505-.57 1.124-.855 1.86-.855.81 0 1.376.276 1.698.829h.026V8.012h1.34v7.256c0 .594.016 1.142.048 1.644zm-1.388-2.573v-1.017a2.02 2.02 0 0 0-.037-.427 1.548 1.548 0 0 0-.485-.822 1.307 1.307 0 0 0-.896-.333c-.5 0-.891.2-1.179.603-.285.403-.43.917-.43 1.544 0 .603.137 1.093.412 1.47.29.4.682.601 1.171.601.44 0 .792-.167 1.059-.502.258-.31.385-.682.385-1.117zm12.847-.528c0 .938-.265 1.707-.794 2.31-.555.62-1.289.93-2.208.93-.883 0-1.588-.297-2.114-.892-.525-.594-.787-1.344-.787-2.247 0-.945.27-1.72.812-2.322.542-.602 1.27-.903 2.19-.903.884 0 1.596.296 2.133.89.51.577.768 1.323.768 2.234zm-1.388.044c0-.563-.12-1.046-.36-1.448-.282-.487-.681-.73-1.203-.73-.537 0-.946.243-1.228.73-.24.402-.36.893-.36 1.473 0 .563.12 1.045.36 1.448.29.486.694.73 1.215.73.512 0 .915-.248 1.203-.743.247-.41.373-.897.373-1.46zm8.592 3.057h-1.339v-3.494c0-1.077-.404-1.616-1.215-1.616a1.2 1.2 0 0 0-.967.444 1.58 1.58 0 0 0-.372 1.046v3.619h-1.341v-4.357c0-.536-.015-1.117-.047-1.746h1.176l.063.954h.037a1.97 1.97 0 0 1 .694-.736c.364-.228.77-.343 1.216-.343.56 0 1.029.184 1.4.552.465.452.695 1.126.695 2.022v3.655zm9.017-5.085h-1.475v2.964c0 .753.262 1.13.78 1.13.241 0 .44-.021.598-.064l.034 1.029c-.264.1-.612.151-1.04.151-.53 0-.941-.163-1.24-.489-.298-.326-.447-.875-.447-1.645v-3.076h-.88v-1.016h.88V9.693l1.313-.401v1.518h1.476v1.017h.001zm7.093 5.085h-1.341v-3.47c0-1.093-.404-1.64-1.213-1.64-.622 0-1.046.316-1.279.95-.04.134-.063.297-.063.488v3.67h-1.338v-8.9h1.338v3.677h.026c.422-.669 1.027-1.003 1.81-1.003.555 0 1.014.184 1.378.553.454.46.682 1.143.682 2.046v3.629zm7.317-3.34c0 .244-.018.449-.05.616h-4.019c.018.603.21 1.062.582 1.38.34.285.779.428 1.316.428a4.39 4.39 0 0 0 1.625-.289l.21.942c-.572.251-1.245.377-2.023.377-.933 0-1.669-.278-2.2-.835-.535-.557-.8-1.303-.8-2.24 0-.92.247-1.687.745-2.298.519-.652 1.22-.978 2.106-.978.867 0 1.526.326 1.97.978.36.518.538 1.159.538 1.92zm-1.279-.35c.01-.402-.078-.75-.26-1.042-.232-.376-.586-.565-1.066-.565-.437 0-.794.183-1.066.552a2.068 2.068 0 0 0-.398 1.055h2.79z" fill="#FFF"/></g></svg><svg width="164" height="28" viewBox="0 0 164 28" y="100" xmlns="http://www.w3.org/2000/svg"><title>★★★★★</title><path d="M14 .82l3.4 10.268h10.472l-8.364 6.46 3.434 10.302L14 21.322 5.092 27.85l3.4-10.302-8.364-6.46h10.438L14 .82zm34 0l3.4 10.268h10.472l-8.364 6.46 3.434 10.302L48 21.322l-8.908 6.528 3.4-10.302-8.364-6.46h10.438L48 .82zm34 0l3.4 10.268h10.472l-8.364 6.46 3.434 10.302L82 21.322l-8.908 6.528 3.4-10.302-8.364-6.46h10.438L82 .82zm34 0l3.4 10.268h10.472l-8.364 6.46 3.434 10.302L116 21.322l-8.908 6.528 3.4-10.302-8.364-6.46h10.438L116 .82zm34 0l3.4 10.268h10.472l-8.364 6.46 3.434 10.302L150 21.322l-8.908 6.528 3.4-10.302-8.364-6.46h10.438L150 .82z" fill="#00A98B" fill-rule="evenodd"/></svg><svg width="66" height="80" viewBox="0 0 66 80" x="170" xmlns="http://www.w3.org/2000/svg"><title>icon-value-docs</title><g fill="none" fill-rule="evenodd"><path d="M58.355 69.521L57.091 4.384h5.662a3 3 0 0 1 3 3V77a3 3 0 0 1-3 3H8.48a3 3 0 0 1-3-3v-4.136l49.894-.284a3 3 0 0 0 2.982-3.059z" fill="#F9DFCC"/><path d="M4.307 4.32v66.975h52.756V4.321H4.307zM3.23 0h54.91c1.784 0 3.23 1.45 3.23 3.24v69.136c0 1.79-1.446 3.24-3.23 3.24H3.23A3.235 3.235 0 0 1 0 72.376V3.24C0 1.45 1.446 0 3.23 0z" fill="#F9DFCC" fill-rule="nonzero"/><path d="M26.05 54.252l.003.066c.052 1.668.1 2.413.251 3.189.28 1.44.914 2.405 2.236 2.396 1.538-.009 2.262-.8 3.645-3.026l.079-.128c.456-.734.697-1.086.95-1.365.004.19.001.43-.006.74l-.002.056c-.025 1.01-.014 1.424.106 1.938.237 1.02.945 1.736 2.053 1.713a2.643 2.643 0 0 0 1.16-.31c.681-.35 1.241-.892 2.024-1.82.022-.026.287-.346.495-.593.952 1.189 2.974 1.876 6.049 2.467.79.152 1.599.285 2.606.435l.582.085.536.079c.403.059.669.1.897.137a1.295 1.295 0 1 0 .417-2.557c-.246-.04-.523-.083-.94-.144l-.538-.078-.574-.085a59.92 59.92 0 0 1-2.5-.417c-2.722-.522-4.457-1.229-4.565-1.627-.401-1.485-1.733-1.936-2.88-1.063-.261.2-.51.452-.822.81-.16.185-.72.86-.735.877-.32.379-.58.662-.798.863 0-.17.003-.38.01-.645l.001-.057c.025-1.007.008-1.478-.134-2.019-.271-1.035-1.032-1.73-2.162-1.687-1.436.055-2.133.822-3.422 2.897l-.08.128c-.528.85-.887 1.344-1.134 1.594a4.298 4.298 0 0 1-.018-.091c-.114-.584-.158-1.26-.206-2.773l-.002-.066c-.052-1.678-.095-2.376-.237-3.134-.266-1.43-.87-2.386-2.178-2.386-1.652 0-3.067 1.837-4.522 4.844-1.143 2.361-1.979 4.9-1.914 6.064.04.715.65 1.261 1.362 1.221a1.294 1.294 0 0 0 1.217-1.365c-.078-1.41 2.385-6.686 3.494-7.916.11.588.149 1.227.197 2.753z" fill="#E8845B" fill-rule="nonzero"/><path d="M16.793 61.888a1.134 1.134 0 0 1 0 1.522 1.065 1.065 0 0 1-1.58 0l-1.056-1.155-1.055 1.154a1.065 1.065 0 0 1-1.58 0 1.134 1.134 0 0 1 0-1.521l1.15-1.258-1.15-1.258a1.134 1.134 0 0 1 0-1.521 1.065 1.065 0 0 1 1.58 0l1.055 1.154 1.056-1.154a1.065 1.065 0 0 1 1.58 0 1.133 1.133 0 0 1 0 1.521l-1.15 1.258 1.15 1.258z" fill="#F9DFCC" fill-rule="nonzero"/><path d="M19.612 62.597a.99.99 0 0 1 .987-.984h29.83c.545 0 .986.437.986.984a.99.99 0 0 1-.986.985h-29.83a.983.983 0 0 1-.987-.985z" fill="#F9DFCC"/><path d="M39.528 41.283H11.467c-2.138 0-2.138-3.244 0-3.244h28.06c2.139 0 2.139 3.244 0 3.244zm9.7-7.57H11.47c-2.143 0-2.143-3.244 0-3.244h37.758c2.143 0 2.143 3.244 0 3.244zm0-8.652H11.47c-2.143 0-2.143-3.244 0-3.244h37.758c2.143 0 2.143 3.244 0 3.244zm0-7.57H11.47c-2.143 0-2.143-3.244 0-3.244h37.758c2.143 0 2.143 3.244 0 3.244z" fill="#DC4004" fill-rule="nonzero"/></g></svg><svg width="70" height="79" viewBox="0 0 70 79" y="128" xmlns="http://www.w3.org/2000/svg"><title>icon-value-sign</title><defs><path id="e" d="M0 .003v22.092h76.322V.003z"/></defs><g fill="none" fill-rule="evenodd"><g fill="#F9DFCC"><path d="M54.367 5.535c-.954 0-2.009.448-2.866 1.307L11.782 46.544c-2.287 2.286-3.88 5.93-4.846 8.906 2.842-.91 6.525-2.456 8.912-4.842l39.72-39.702c1.474-1.474 1.738-3.523.598-4.662-.477-.477-1.112-.709-1.8-.709M3.278 61.742a2.626 2.626 0 0 1-1.859-.772 2.629 2.629 0 0 1-.731-2.314c.073-.418 1.854-10.317 7.375-15.837L47.78 3.12c3.56-3.561 8.877-3.825 12.107-.598 3.225 3.228 2.962 8.546-.598 12.108l-39.72 39.702c-5.522 5.518-15.422 7.299-15.84 7.37a2.63 2.63 0 0 1-.452.041"/><path d="M44.841 10.854l8.257 8.257-34.47 34.47-8.257-8.257z"/></g><path d="M54.048 25.724L39.224 11.918a2.622 2.622 0 0 1 0-3.687 2.569 2.569 0 0 1 3.657 0l14.825 13.804L61.707 18a2.615 2.615 0 0 1 3.722 0 2.67 2.67 0 0 1 0 3.754l-18.905 19.07a2.612 2.612 0 0 1-1.862.776 2.612 2.612 0 0 1-1.861-.777 2.675 2.675 0 0 1 0-3.755l11.247-11.344z" fill="#E8845B"/><path d="M16.546 52.602l-8.18-6.738c-1.11-.976-1.11-2.558 0-3.532 1.111-.976 2.91-.976 4.021 0l8.181 6.737c1.11.975 1.11 2.557 0 3.533-.555.488-1.283.731-2.011.731-.728 0-1.456-.243-2.011-.73z" fill="#F9DFCC"/><g transform="translate(-1 57.6)"><mask id="f" fill="#fff"><use xlink:href="#e"/></mask><path d="M44.606 20.02c-1.572-.963-2.267-3.187-1.65-5.292l2.078-7.098c-2.5 2.34-4.854 4.991-7.021 7.912-.97 1.306-2.514 1.841-3.926 1.378-1.639-.543-2.631-2.22-2.527-4.276.074-1.444.129-2.904.162-4.362-1.33 1.8-2.698 3.551-4.088 5.232-1.022 1.243-2.592 1.687-3.993 1.13-1.49-.593-2.396-2.145-2.366-3.97a79.952 79.952 0 0 0-12.076 7.62c-.977.746-2.402.591-3.183-.345-.78-.934-.619-2.296.36-3.04 4.61-3.511 9.477-6.503 14.463-8.895a3.305 3.305 0 0 1 3.306.235c.83.56 1.391 1.45 1.616 2.496a122.696 122.696 0 0 0 4.006-5.386c.938-1.336 2.41-1.903 3.85-1.48 1.636.48 2.686 2.105 2.671 4.136a162.797 162.797 0 0 1-.103 4.622c2.497-3.065 5.2-5.816 8.059-8.207 1.145-.956 2.676-1.097 3.903-.358 1.586.956 2.288 3.183 1.669 5.294l-2.035 6.948a99.863 99.863 0 0 0 1.651-1.729c3.06-3.248 6.222-6.607 10.586-7.079 3.539-.388 6.788 1.312 9.77 3.2 1.042.66 1.327 2.003.635 2.999-.69.998-2.096 1.268-3.14.609-2.269-1.437-4.655-2.726-6.755-2.508-2.654.289-5.119 2.905-7.726 5.674-1.376 1.46-2.796 2.97-4.344 4.23a3.435 3.435 0 0 1-2.163.787 3.222 3.222 0 0 1-1.689-.478z" fill="#DC4004" mask="url(#f)"/></g></g></svg></svg>