<svg width="239" height="160" viewBox="0 0 239 160" xmlns="http://www.w3.org/2000/svg" xmlns:xlink="http://www.w3.org/1999/xlink"><svg width="130" height="39" viewBox="0 0 130 39" id="svgs--app-download-button-android-130" y="52" xmlns="http://www.w3.org/2000/svg"><title>svgs--app-download-button-android</title><defs><linearGradient x1="91.488%" y1="4.948%" x2="-38.352%" y2="71.907%" id="aa"><stop stop-color="#00A0FF" offset="0%"/><stop stop-color="#00A1FF" offset="1%"/><stop stop-color="#00BEFF" offset="26%"/><stop stop-color="#00D2FF" offset="51%"/><stop stop-color="#00DFFF" offset="76%"/><stop stop-color="#00E3FF" offset="100%"/></linearGradient><linearGradient x1="107.685%" y1="50%" x2="-130.64%" y2="50%" id="ab"><stop stop-color="#FFE000" offset="0%"/><stop stop-color="#FFBD00" offset="41%"/><stop stop-color="#FFA500" offset="78%"/><stop stop-color="#FF9C00" offset="100%"/></linearGradient><linearGradient x1="86.219%" y1="17.877%" x2="-50.15%" y2="194.703%" id="ac"><stop stop-color="#FF3A44" offset="0%"/><stop stop-color="#C31162" offset="100%"/></linearGradient><linearGradient x1="-18.754%" y1="-54.052%" x2="42.121%" y2="24.917%" id="ad"><stop stop-color="#32A071" offset="0%"/><stop stop-color="#2DA771" offset="7%"/><stop stop-color="#15CF74" offset="48%"/><stop stop-color="#06E775" offset="80%"/><stop stop-color="#00F076" offset="100%"/></linearGradient></defs><g fill="none"><path d="M4.812.12h120.376A4.812 4.812 0 0 1 130 4.932v28.61a4.812 4.812 0 0 1-4.812 4.813H4.812A4.812 4.812 0 0 1 0 33.543V4.932A4.812 4.812 0 0 1 4.812.12z" fill="#000"/><path d="M45.395 9.715a2.862 2.862 0 0 1-.719 2.036 2.702 2.702 0 0 1-2.105.907c-1.213-.01-2.303-.793-2.765-1.987-.462-1.193-.206-2.566.65-3.481a2.786 2.786 0 0 1 2.115-.917c.407-.001.808.086 1.178.255.346.149.654.382.9.682l-.508.54a1.864 1.864 0 0 0-1.57-.723c-.612 0-1.195.261-1.604.717a2.447 2.447 0 0 0-.626 1.726c-.013.972.524 1.855 1.361 2.24.839.385 1.811.197 2.467-.478.296-.34.465-.78.48-1.242H42.57v-.732h2.786c.025.15.038.304.038.458zM49.78 7.17h-2.584v1.935h2.355v.733h-2.355v1.935h2.584v.753h-3.35v-6.11h3.35v.754zm3.14 5.356h-.737V7.17h-1.608v-.753h3.992v.753H52.92v5.356zm4.461 0v-6.11h.738v6.11h-.738zm4.011 0h-.737V7.17h-1.608v-.753h3.944v.753h-1.598v5.356zm9.077-.794c-1.166 1.233-3.048 1.233-4.212 0-1.13-1.272-1.13-3.26 0-4.531a2.881 2.881 0 0 1 2.106-.933c.79 0 1.548.336 2.106.933 1.134 1.27 1.134 3.261 0 4.53zm-3.667-.51a2.118 2.118 0 0 0 3.12 0 2.73 2.73 0 0 0 0-3.502 2.118 2.118 0 0 0-3.12 0 2.729 2.729 0 0 0 0 3.503zm5.552 1.304v-6.11h.9l2.795 4.756V6.416h.738v6.11h-.767l-2.92-4.98v4.979h-.747.001z" stroke="#FFF" stroke-width=".577" fill="#FFF"/><path d="M65.23 21.435c-2.244.01-4.056 1.953-4.049 4.34.008 2.388 1.83 4.318 4.075 4.315 2.245-.004 4.062-1.94 4.062-4.328a4.412 4.412 0 0 0-1.181-3.086 3.89 3.89 0 0 0-2.906-1.241zm0 6.954c-1.012.075-1.964-.514-2.401-1.488-.437-.973-.27-2.132.42-2.921.691-.79 1.766-1.05 2.71-.658.944.394 1.566 1.361 1.57 2.44a2.6 2.6 0 0 1-.629 1.829 2.295 2.295 0 0 1-1.67.798zm-8.912-6.954c-2.246.005-4.063 1.945-4.059 4.334.003 2.388 1.826 4.322 4.072 4.32 2.245-.001 4.065-1.938 4.065-4.327a4.409 4.409 0 0 0-1.181-3.086 3.891 3.891 0 0 0-2.907-1.241h.01zm0 6.954c-1.012.08-1.967-.508-2.408-1.48a2.76 2.76 0 0 1 .414-2.925c.69-.792 1.765-1.055 2.71-.662.946.393 1.57 1.36 1.572 2.44a2.6 2.6 0 0 1-.628 1.829 2.295 2.295 0 0 1-1.67.798h.01zM45.7 22.77v1.833h4.136a3.959 3.959 0 0 1-.957 2.31c-.837.907-1.995 1.395-3.189 1.345-2.537 0-4.594-2.189-4.594-4.887 0-2.7 2.057-4.888 4.595-4.888a4.263 4.263 0 0 1 3.13 1.313l1.216-1.293c-1.144-1.232-2.709-1.92-4.336-1.904-2.318-.096-4.5 1.165-5.685 3.285a7.1 7.1 0 0 0 0 6.881c1.185 2.12 3.367 3.38 5.684 3.285 1.658.08 3.268-.608 4.413-1.884 1.004-1.172 1.539-2.712 1.494-4.297a6.347 6.347 0 0 0-.096-1.15l-5.81.05zm43.376 1.425c-.512-1.599-1.897-2.697-3.485-2.759-1.058-.002-2.07.461-2.796 1.28a4.227 4.227 0 0 0-1.033 3.047 4.382 4.382 0 0 0 1.155 3.077c.762.816 1.804 1.268 2.884 1.25 1.361.009 2.634-.71 3.39-1.914l-1.388-1.018c-.422.747-1.182 1.204-2.002 1.202-.849.034-1.63-.487-1.971-1.314l5.447-2.393-.201-.458zm-5.552 1.445c-.041-.63.16-1.25.563-1.736a2.18 2.18 0 0 1 1.561-.788c.632-.044 1.227.316 1.513.916l-3.638 1.61.001-.002zM79.1 29.837h1.79v-12.73H79.1v12.729zm-2.93-7.433h-.067a2.799 2.799 0 0 0-2.144-1.019c-2.172.113-3.88 2.02-3.88 4.333 0 2.314 1.708 4.22 3.88 4.332a2.705 2.705 0 0 0 2.144-1.017h.058v.62c0 1.66-.833 2.546-2.173 2.546-.913-.023-1.723-.63-2.05-1.537l-1.56.692c.602 1.555 2.03 2.566 3.61 2.556 2.096 0 3.829-1.314 3.829-4.511V21.69h-1.646v.713zm-2.049 5.987c-1.28-.12-2.261-1.26-2.261-2.627 0-1.367.982-2.507 2.262-2.627.628.038 1.21.338 1.607.826a2.55 2.55 0 0 1 .566 1.801 2.524 2.524 0 0 1-.563 1.81c-.4.49-.989.787-1.62.817h.01zm23.34-11.282h-4.28v12.728h1.79V25.01h2.5c1.39.107 2.72-.622 3.445-1.889a4.178 4.178 0 0 0 0-4.123c-.725-1.266-2.055-1.996-3.445-1.889h-.01zm0 6.11h-2.499V18.88H97.5c1.134 0 2.053.977 2.053 2.184 0 1.206-.919 2.184-2.053 2.184l-.038-.03zm11.038-1.834c-1.333-.084-2.585.68-3.189 1.945l1.59.703c.32-.627.958-.995 1.627-.937a1.65 1.65 0 0 1 1.28.393c.36.308.59.757.635 1.247v.132a3.765 3.765 0 0 0-1.867-.49c-1.713 0-3.447 1.02-3.447 2.862a3.02 3.02 0 0 0 .929 2.067 2.664 2.664 0 0 0 2.04.733c.917.07 1.799-.398 2.297-1.222h.058v1.019h1.722v-4.898c0-2.23-1.589-3.523-3.628-3.523l-.047-.03zm-.22 6.975c-.585 0-1.399-.315-1.399-1.079 0-1.018 1.015-1.354 1.915-1.354a3.028 3.028 0 0 1 1.628.428c-.124 1.139-1.018 2.008-2.097 2.036l-.048-.03zm10.175-6.669l-2.048 5.518h-.058l-2.125-5.518h-1.915l3.188 7.718-1.819 4.287h1.868l4.9-12.005h-1.99zm-16.091 8.146h1.789v-12.73h-1.79v12.729z" fill="#FFF"/><path d="M.818.729a2.122 2.122 0 0 0-.441 1.425v22.523c-.03.513.126 1.02.44 1.425l.068.072 11.86-12.606v-.295L.885.658l-.068.07h.001z" fill="url(#aa)" transform="translate(9.176 6.237)"/><path d="M16.67 17.773l-3.925-4.205v-.295l3.926-4.215.086.05 4.7 2.841c1.34.805 1.34 2.128 0 2.943l-4.68 2.83-.106.051z" fill="url(#ab)" transform="translate(9.176 6.237)"/><path d="M16.785 17.713l-4.04-4.298L.818 26.102a1.49 1.49 0 0 0 1.992.062l13.986-8.451" fill="url(#ac)" transform="translate(9.176 6.237)"/><path d="M16.785 9.118L2.8.668a1.49 1.49 0 0 0-1.99.06l11.936 12.687 4.04-4.297z" fill="url(#ad)" transform="translate(9.176 6.237)"/><path d="M25.847 23.858l-13.872 8.4a1.523 1.523 0 0 1-1.914 0l-.067.072.067.07a1.514 1.514 0 0 0 1.915 0l13.987-8.45-.116-.092z" fill="#000" opacity=".2"/><path d="M9.995 32.197a2.122 2.122 0 0 1-.442-1.425v.153c-.03.513.126 1.02.44 1.425l.068-.072-.067-.08zm20.64-11.22l-4.788 2.881.086.092 4.7-2.83c.543-.272.909-.831.958-1.468a1.88 1.88 0 0 1-.958 1.324h.001z" fill="#000" opacity=".12"/><path d="M11.975 7.048l18.66 11.28c.493.26.846.75.956 1.324-.05-.634-.415-1.194-.958-1.466L11.976 6.905C10.636 6.1 9.544 6.772 9.544 8.4v.153c.03-1.64 1.101-2.311 2.432-1.506z" fill="#FFF" opacity=".25"/></g></svg><svg width="130" height="39" viewBox="0 0 130 39" id="svgs--app-download-button-apple-130" y="91" xmlns="http://www.w3.org/2000/svg"><title>svgs--app-download-button-apple</title><g fill="none"><path d="M125.662 38.355H3.753C1.683 38.355 0 36.64 0 34.522V3.957C0 1.842 1.682.12 3.753.12h121.908c2.074 0 3.749 1.72 3.749 3.838v30.564c0 2.118-1.675 3.833-3.748 3.833z" fill="#000"/><path d="M27.899 19.764c-.029-3.29 2.554-4.89 2.672-4.964-1.462-2.249-3.73-2.556-4.525-2.58-1.903-.212-3.75 1.2-4.718 1.2-.99 0-2.483-1.18-4.092-1.145-2.07.033-4.007 1.298-5.07 3.262-2.192 4.004-.558 9.887 1.544 13.124 1.05 1.585 2.278 3.354 3.885 3.292 1.572-.068 2.16-1.057 4.057-1.057 1.88 0 2.432 1.057 4.071 1.017 1.687-.028 2.75-1.591 3.763-3.191 1.215-1.817 1.703-3.606 1.722-3.698-.04-.014-3.277-1.317-3.31-5.26zm-3.096-9.673c.845-1.116 1.424-2.633 1.264-4.173-1.224.056-2.756.892-3.637 1.983-.78.961-1.476 2.537-1.297 4.02 1.375.108 2.787-.732 3.67-1.83zM50.852 31.01h-2.219l-1.216-3.87h-4.226l-1.158 3.87h-2.161l4.187-13.171h2.586l4.207 13.17zm-3.802-5.493l-1.099-3.439c-.117-.352-.335-1.178-.656-2.481h-.039c-.128.56-.334 1.388-.618 2.481l-1.08 3.439h3.492zm14.57.627c0 1.615-.431 2.891-1.293 3.829-.772.834-1.731 1.251-2.875 1.251-1.236 0-2.123-.45-2.664-1.348h-.039v5.002h-2.084V24.64a65.72 65.72 0 0 0-.077-3.128h1.832l.117 1.507h.039c.695-1.135 1.75-1.7 3.165-1.7 1.106 0 2.03.441 2.768 1.327.742.888 1.11 2.053 1.11 3.499zm-2.124.076c0-.923-.205-1.686-.617-2.285-.45-.626-1.055-.939-1.814-.939-.514 0-.981.175-1.399.518a2.41 2.41 0 0 0-.82 1.36 2.73 2.73 0 0 0-.096.642V27.1c0 .691.209 1.275.627 1.751.418.476.962.713 1.63.713.786 0 1.396-.307 1.833-.918.438-.613.656-1.42.656-2.424zm12.91-.076c0 1.615-.43 2.891-1.294 3.829-.77.834-1.73 1.251-2.874 1.251-1.235 0-2.123-.45-2.662-1.348h-.04v5.002h-2.084V24.64c0-1.016-.026-2.058-.076-3.128h1.831l.117 1.507h.038c.695-1.135 1.75-1.7 3.166-1.7 1.105 0 2.028.441 2.77 1.327.737.888 1.108 2.053 1.108 3.499zm-2.123.076c0-.923-.206-1.686-.618-2.285-.45-.626-1.053-.939-1.813-.939-.515 0-.982.175-1.4.518-.418.347-.69.799-.819 1.36a2.85 2.85 0 0 0-.096.642V27.1c0 .691.209 1.275.625 1.751.419.474.962.713 1.632.713.785 0 1.396-.307 1.833-.918.438-.613.656-1.42.656-2.424zm14.183 1.096c0 1.12-.384 2.031-1.154 2.735-.848.77-2.027 1.153-3.543 1.153-1.4 0-2.521-.273-3.371-.82l.482-1.76c.906.559 1.95.85 3.013.842.785 0 1.395-.18 1.834-.538.438-.358.656-.84.656-1.439 0-.535-.18-.985-.541-1.35-.36-.365-.958-.705-1.795-1.019-2.277-.86-3.414-2.12-3.414-3.776 0-1.083.398-1.97 1.196-2.661.796-.692 1.858-1.039 3.185-1.039 1.183 0 2.167.21 2.951.626l-.52 1.72c-.734-.403-1.563-.605-2.49-.605-.733 0-1.306.183-1.716.547a1.573 1.573 0 0 0-.52 1.192c0 .52.198.951.596 1.29.347.313.978.651 1.892 1.017 1.12.456 1.942.989 2.47 1.6.527.61.79 1.373.79 2.284zm6.89-4.22H89.06v4.611c0 1.172.405 1.759 1.216 1.759.372 0 .681-.034.925-.1l.058 1.603c-.41.156-.95.234-1.62.234-.823 0-1.466-.254-1.93-.762-.463-.509-.695-1.361-.695-2.56v-4.787h-1.369V21.51h1.369v-1.74l2.046-.626v2.364h2.297v1.588-.001zm10.363 3.086c0 1.46-.413 2.658-1.235 3.596-.863.965-2.009 1.445-3.437 1.445-1.376 0-2.471-.462-3.288-1.385-.818-.926-1.227-2.092-1.227-3.498 0-1.472.421-2.677 1.265-3.615.84-.938 1.977-1.407 3.405-1.407 1.376 0 2.483.463 3.319 1.388.8.897 1.198 2.056 1.198 3.476zm-2.162.07c0-.877-.185-1.628-.559-2.255-.437-.758-1.061-1.136-1.87-1.136-.839 0-1.475.379-1.911 1.136-.375.628-.56 1.39-.56 2.293 0 .876.186 1.627.56 2.253.45.758 1.08 1.136 1.891 1.136.796 0 1.42-.386 1.872-1.156.384-.639.577-1.397.577-2.273v.001zm8.935-2.885a3.574 3.574 0 0 0-.657-.058c-.733 0-1.3.28-1.698.841-.348.495-.521 1.12-.521 1.876v4.983h-2.083l.02-6.506a52.06 52.06 0 0 0-.08-2.99h1.816l.077 1.817h.057c.22-.624.567-1.127 1.042-1.504.464-.34.965-.509 1.506-.509.193 0 .366.014.52.038v2.012zm9.319 2.444c0 .378-.025.697-.077.957h-6.25c.024.938.326 1.656.906 2.151.527.442 1.209.664 2.045.664.925 0 1.77-.15 2.53-.45l.326 1.465c-.887.392-1.935.587-3.144.587-1.455 0-2.596-.433-3.427-1.3-.829-.865-1.244-2.028-1.244-3.486 0-1.433.386-2.626 1.16-3.577.808-1.015 1.902-1.522 3.278-1.522 1.352 0 2.375.507 3.07 1.522.55.807.827 1.805.827 2.99zm-1.987-.547c.014-.626-.122-1.166-.405-1.622-.36-.587-.914-.88-1.66-.88-.681 0-1.236.286-1.66.86-.346.457-.552 1.003-.616 1.641h4.34zM46.175 9.663c0 1.165-.345 2.042-1.034 2.63-.639.544-1.546.817-2.721.817a12.36 12.36 0 0 1-1.5-.078V6.668a10.928 10.928 0 0 1 1.766-.135c1.12 0 1.963.246 2.532.74.638.556.957 1.353.957 2.39zm-1.08.03c0-.756-.198-1.335-.593-1.739-.395-.402-.971-.604-1.731-.604-.323 0-.597.021-.825.067v4.838c.126.02.357.03.692.03.784 0 1.39-.222 1.815-.663.427-.441.642-1.085.642-1.93zm6.808.988c0 .717-.202 1.305-.607 1.766-.425.474-.987.712-1.689.712-.676 0-1.215-.228-1.616-.683-.401-.454-.601-1.027-.601-1.718 0-.723.206-1.315.62-1.776.414-.46.972-.69 1.674-.69.676 0 1.22.226 1.632.68.39.442.587 1.012.587 1.709zm-1.063.034c0-.431-.092-.8-.275-1.108-.214-.372-.52-.558-.919-.558-.411 0-.724.186-.939.558-.183.308-.275.683-.275 1.127 0 .43.092.799.275 1.107.222.372.53.558.93.558.39 0 .698-.19.918-.568.19-.314.285-.686.285-1.116zm8.744-2.328L58.14 13.05h-.938l-.597-2.024a15.317 15.317 0 0 1-.371-1.508h-.018c-.09.513-.213 1.014-.371 1.507l-.635 2.026h-.948l-1.357-4.665h1.053l.52 2.217c.127.525.23 1.025.314 1.498h.019a16.7 16.7 0 0 1 .38-1.488l.654-2.226h.835l.627 2.179c.151.531.274 1.043.37 1.536h.027c.07-.48.174-.992.313-1.536l.56-2.18h1.006zm5.311 4.665h-1.024V10.38c0-.823-.31-1.235-.93-1.235a.922.922 0 0 0-.74.34 1.214 1.214 0 0 0-.284.799v2.767h-1.025V9.72c0-.41-.012-.855-.037-1.336h.901l.048.73h.028c.124-.231.307-.425.53-.563.279-.174.59-.262.93-.262.43 0 .787.14 1.072.422.354.346.531.861.531 1.546v2.795zm2.826 0h-1.025V6.246h1.025v6.806zm6.031-2.371c0 .717-.202 1.305-.606 1.766-.425.474-.988.712-1.689.712-.677 0-1.216-.228-1.617-.683-.4-.454-.601-1.027-.601-1.718 0-.723.206-1.315.62-1.776.415-.46.972-.69 1.673-.69.678 0 1.22.226 1.633.68.391.442.587 1.012.587 1.709zm-1.063.034c0-.431-.092-.8-.275-1.108-.214-.372-.52-.558-.918-.558-.413 0-.726.186-.94.558-.183.308-.274.683-.274 1.127 0 .43.092.799.275 1.107.222.372.53.558.93.558.39 0 .697-.19.917-.568.191-.314.285-.686.285-1.116zm6.022 2.337h-.92l-.076-.537h-.029c-.315.428-.763.643-1.345.643-.436 0-.788-.142-1.053-.422a1.334 1.334 0 0 1-.36-.95c0-.57.234-1.005.707-1.306.47-.3 1.134-.448 1.987-.441V9.95c0-.614-.319-.921-.957-.921-.454 0-.856.116-1.202.346l-.208-.681c.428-.268.957-.403 1.581-.403 1.205 0 1.809.643 1.809 1.93v1.718c0 .466.023.837.066 1.112zm-1.064-1.603v-.72c-1.13-.02-1.696.294-1.696.94 0 .244.065.426.197.548a.711.711 0 0 0 .5.182c.226 0 .435-.072.628-.215a.885.885 0 0 0 .37-.735zm6.886 1.603h-.91l-.048-.75h-.028c-.29.571-.784.856-1.48.856-.555 0-1.017-.22-1.384-.662-.367-.442-.55-1.014-.55-1.718 0-.756.2-1.367.598-1.834.386-.436.86-.654 1.422-.654.62 0 1.052.211 1.299.634h.02V6.246h1.024v5.55c0 .453.012.872.037 1.256zm-1.062-1.967v-.778a1.184 1.184 0 0 0-.4-.955 1 1 0 0 0-.684-.255c-.382 0-.681.153-.901.461-.218.308-.33.702-.33 1.181 0 .461.105.836.316 1.124.222.306.521.46.895.46a.983.983 0 0 0 .81-.384 1.29 1.29 0 0 0 .294-.854zm9.825-.404c0 .717-.203 1.305-.608 1.766-.424.474-.985.712-1.688.712-.675 0-1.214-.228-1.617-.683-.401-.454-.601-1.027-.601-1.718 0-.723.206-1.315.62-1.776.415-.46.972-.69 1.675-.69.676 0 1.22.226 1.631.68.39.442.588 1.012.588 1.709zm-1.062.034c0-.431-.092-.8-.275-1.108-.216-.372-.52-.558-.92-.558-.41 0-.723.186-.94.558-.183.308-.274.683-.274 1.127 0 .43.091.799.275 1.107.222.372.53.558.93.558.39 0 .699-.19.919-.568.189-.314.285-.686.285-1.116zm6.57 2.337h-1.023V10.38c0-.823-.31-1.235-.93-1.235a.918.918 0 0 0-.739.34c-.188.223-.29.507-.284.799v2.767h-1.026V9.72c0-.41-.011-.855-.036-1.336h.9l.048.73h.028c.125-.23.308-.425.53-.563.279-.174.59-.262.93-.262.429 0 .787.14 1.071.422.356.346.532.861.532 1.546v2.795zm6.896-3.888h-1.128v2.266c0 .576.2.864.596.864.185 0 .337-.016.458-.049l.026.787c-.202.077-.468.116-.796.116-.405 0-.72-.125-.948-.374-.228-.25-.342-.67-.342-1.258V9.164h-.673v-.777h.673v-.855l1.004-.307v1.161h1.13v.778zm5.424 3.888h-1.025V10.4c0-.836-.31-1.254-.928-1.254-.476 0-.8.241-.978.726-.03.103-.048.227-.048.373v2.807h-1.023V6.245h1.023v2.812h.02c.322-.512.785-.767 1.384-.767.424 0 .775.14 1.053.423.348.351.522.874.522 1.564v2.775zm5.595-2.554c0 .187-.013.343-.038.471h-3.073c.014.461.16.812.445 1.055.26.218.596.328 1.006.328.425.005.846-.07 1.243-.221l.16.72c-.437.192-.952.288-1.547.288-.713 0-1.276-.212-1.682-.638-.41-.426-.612-.997-.612-1.713 0-.704.19-1.29.57-1.757.397-.499.933-.748 1.61-.748.663 0 1.167.25 1.507.748.275.396.411.886.411 1.468zm-.978-.268a1.409 1.409 0 0 0-.199-.796c-.177-.288-.448-.432-.815-.432a.968.968 0 0 0-.815.422c-.174.235-.28.515-.304.806h2.133z" fill="#FFF"/></g></svg><svg width="26" height="30" viewBox="0 0 26 30" id="svgs--icon-document-mediumgray" x="154" y="91" xmlns="http://www.w3.org/2000/svg"><title>img-document-mediumgray</title><g fill="#999"><path d="M4.34 20.793h15.74v-1.875H4.34v1.875zm0 3.893h15.74v-1.874H4.34v1.874zm0-7.643h15.74v-1.875H4.34v1.875zm0-5.625v1.875h15.74v-1.875H4.34zm.033-4.806v1.875h9.947V6.612H4.373z"/><path d="M2.095 1.874h13.528c.528 0 1.274.42 1.274.938v1.876c0 .959.055 1.762.801 2.495.745.732 1.564.786 2.541.786h1.91c.527 0 .955.732.955 1.25v18.906H2.096V1.875zM.186 28.125c0 .48.187.96.56 1.326a1.92 1.92 0 0 0 1.35.549h21.008c.489 0 .977-.183 1.35-.549a1.85 1.85 0 0 0 .56-1.326V9.375a4.498 4.498 0 0 0-1.35-3.201l-4.94-4.848A4.668 4.668 0 0 0 15.465 0H2.096C1.607 0 1.12.183.745.55a1.85 1.85 0 0 0-.559 1.325v26.25z"/></g></svg><svg width="30" height="30" viewBox="0 0 30 30" id="svgs--icon-header-avatar-white" x="30" y="130" xmlns="http://www.w3.org/2000/svg"><title>img-header-avatar-white</title><defs><path d="M28.183 14.15c0 7.816-6.31 14.152-14.092 14.152C6.31 28.302 0 21.966 0 14.15 0 6.336 6.309 0 14.091 0c7.783 0 14.092 6.336 14.092 14.15z" id="da"/></defs><g fill="none" fill-rule="evenodd"><path d="M14.957 28.302C7.657 28.302 1.73 22.35 1.73 15S7.656 1.698 14.956 1.698c7.3 0 13.226 5.951 13.226 13.302 0 7.35-5.926 13.302-13.226 13.302zm0-28.302C6.692 0 0 6.72 0 15c0 8.28 6.692 15 14.957 15s14.956-6.72 14.956-15c0-8.28-6.691-15-14.956-15z" fill="#FFF" fill-rule="nonzero"/><g transform="translate(.865 .85)"><mask id="db" fill="#fff"><use xlink:href="#da"/></mask><path d="M10.767 22.069c0 .689-.608 1.337-1.353 1.447l-3.04.448c-2.241.33-4.16 2.271-4.286 4.338h25.351c-.63-1.95-2.95-3.835-5.182-4.209l-3.292-.551c-.744-.125-1.347-.783-1.347-1.473v-1.78c.786-.823 1.02-2.087 1.294-3.474.432.092.56-.43.796-1.44s.974-2.045.306-2.174a.689.689 0 0 0-.251-.004l.254-3.394c.107-1.417-.567-2.984-1.55-3.363-1.627-.627-2.13-.96-3.142-1.139-1.012-.18-2.005.072-3.057.38-1.052.307-2.006 1.107-2.792 1.539-.787.432-1.196 1.408-1.108 2.583l.254 3.392a.693.693 0 0 0-.24.006c-.667.129.071 1.164.307 2.174s.364 1.532.734 1.46c.331 1.369.558 2.632 1.344 3.455v1.779z" fill="#FFF" fill-rule="nonzero" mask="url(#db)"/></g></g></svg><svg width="36" height="28" viewBox="0 0 36 28" id="svgs--icon-help-white" x="130" y="52" xmlns="http://www.w3.org/2000/svg"><title>img-help-mediumgray</title><g fill="#FFF"><path d="M34.725 1.162c.097 0 .18.075.18.164v19.905c0 .091-.08.165-.18.165H14.318l-.235.12-7.794 3.989 1.272-2.518.805-1.591h-7.09c-.1 0-.179-.075-.179-.165V1.326c0-.09.081-.164.179-.164h33.449zm0-1.098H1.275C.57.064 0 .629 0 1.326V21.23c0 .697.57 1.262 1.276 1.262h5.306l-2.79 5.523 10.79-5.523h20.143A1.27 1.27 0 0 0 36 21.23V1.326A1.27 1.27 0 0 0 34.725.064z"/><path d="M28.47 9.434c-.2-.173-.518-.262-.947-.262h-.714v2.179h.516c.486 0 .847-.096 1.088-.285.24-.189.359-.464.359-.826 0-.364-.103-.633-.301-.806zM12.45 15.23h-1.565v-3.164h-2.94v3.164H6.371V7.9h1.573v2.874h2.939V7.899h1.565v7.332h.001zm5.888-6.059h-2.701v1.61h2.513v1.274h-2.513v1.891h2.7v1.284h-4.274V7.9h4.275v1.273zm5.868 6.06h-4.583V7.898h1.572v6.05h3.011v1.282zm5.405-3.235c-.502.419-1.208.627-2.129.627h-.675v2.607h-1.572V7.9h2.369c.899 0 1.582.19 2.052.573.47.382.701.954.701 1.713 0 .79-.248 1.394-.746 1.812z"/></g></svg><svg width="24" height="30" viewBox="0 0 24 30" id="svgs--icon-incorporation-mediumgray" x="130" y="91" xmlns="http://www.w3.org/2000/svg"><title>img-incorporation-mediumgray</title><path d="M12 0L0 5v6.786C0 24.213 12 30 12 30s12-5.787 12-18.214V5L12 0zm0 26.552C9.212 24.8 3 19.976 3 11.786V7l9-3.75v23.302z" fill="#999"/></svg><svg width="20" height="20" viewBox="0 0 20 20" id="svgs--icon-menu-close-x-mediumgray" x="186" y="52" xmlns="http://www.w3.org/2000/svg"><title>img-menu-close-x-mediumgray</title><path d="M20 2.353L17.645 0 10 7.647 2.353 0 .001 2.353 7.647 10 .001 17.646 2.353 20 10 12.353 17.646 20 20 17.646 12.353 10z" fill="#999"/></svg><svg width="20" height="20" viewBox="0 0 20 20" id="svgs--icon-nav-search-white" x="206" y="52" xmlns="http://www.w3.org/2000/svg"><title>img-nav-search-darkgray</title><path d="M18.788 16.05a1.936 1.936 0 0 1-2.737 2.738l-3.42-3.421c-.046-.045-.072-.09-.11-.135-.061.038-.118.08-.181.118a8.225 8.225 0 0 1-11.236-3.01 8.224 8.224 0 0 1 3.01-11.236A8.225 8.225 0 0 1 15.24 12.527c.043.035.085.06.128.103l3.421 3.42zM13.674 5.083a6.29 6.29 0 1 0-10.894 6.29 6.29 6.29 0 0 0 10.894-6.29z" fill="#FFF"/></svg><svg width="30" height="30" viewBox="0 0 30 30" id="svgs--icon-qa-new-mediumgray" x="180" y="91" xmlns="http://www.w3.org/2000/svg"><title>img-qa-new-mediumgray</title><g fill="none"><path d="M21.877 27.646l5.527 1.992c1.405.454 2.717-.907 2.212-2.295l-2.134-4.631a14.805 14.805 0 0 0 2.242-7.85C29.724 6.652 23.072 0 14.863 0 6.653 0 0 6.652 0 14.862c0 8.208 6.654 14.862 14.863 14.862 2.703 0 4.737-.725 7.014-2.078zm5.645-12.784c0 3.265-.967 4.992-2.21 6.986l-.282.455.183.504 2.31 4.715-5.007-2.17-.473-.153-.427.254c-1.94 1.153-3.6 2.07-6.753 2.07-6.993 0-12.661-5.67-12.661-12.66 0-6.995 5.667-12.661 12.66-12.661 6.994 0 12.66 5.666 12.66 12.66z" fill="#979797"/><path d="M17.098 24.037H12.51v-4.59h4.587v4.59zm4.3-11.9c-.333.725-.86 1.435-2.009 2.151-.585.367-1.562.925-2.006 1.434-.252.288-.286.837-.286 1.433h-4.586s0-.956.287-1.911c.312-1.047 1.58-2.3 2.844-3.263.672-.504 1.009-.967 1.009-1.388 0-.42-.136-.746-.408-.978-.27-.234-.677-.35-1.225-.35-.59 0-1.077.177-1.463.538-.386.36-.634.986-.742 1.88l-4.832-.55c.166-1.636.812-2.955 1.936-3.95 1.126-.997 2.85-1.496 5.174-1.496 1.81 0 3.273.35 4.385 1.042 1.51.94 2.267 2.195 2.267 3.761 0 .65-.051 1.01-.345 1.648z" fill="#999"/></g></svg><svg width="30" height="30" viewBox="0 0 30 30" id="svgs--icon-rl-circle-rlred" y="130" xmlns="http://www.w3.org/2000/svg"><title>img-rl-circle-rlred</title><g fill="none"><circle fill="#FFF" cx="15" cy="15" r="15"/><path d="M19.883 24.905l-4.043-6.079h-2.437v6.08H7.84l.004-16.752-3.9-3.292A14.945 14.945 0 0 0 0 15c0 8.284 6.715 15 15 15 4.487 0 8.514-1.972 11.263-5.095h-6.38zm-2.552-20.07c3.069 0 5.19.803 6.538 2.18 1.175 1.146 1.777 2.694 1.777 4.672v.058c0 3.068-1.634 5.103-4.128 6.164l4.769 6.968A14.936 14.936 0 0 0 30 15c0-8.284-6.717-15-15-15A14.958 14.958 0 0 0 3.97 4.835h13.36zm-3.928 4.817v4.817h3.67c1.893 0 2.982-.919 2.982-2.38v-.058c0-1.577-1.147-2.38-3.01-2.38l-3.642.001z" fill="#900"/></g></svg><svg id="svgs--icon-search-close-x-mediumgray" width="20" height="20" viewBox="-65 44 20 20" x="210" y="91" xmlns="http://www.w3.org/2000/svg"><style>.kst0{fill:none}.kst1{fill:#999}</style><g id="kPage-1"><g id="kimg-search-close-x-mediumgray" transform="translate(-4 -4)"><path id="kRectangle-2" class="kst0" d="M-61 48h20v20h-20z"/><path id="kShape" class="kst1" d="M-45 53.4l-1.4-1.4-4.6 4.6-4.6-4.6-1.4 1.4 4.6 4.6-4.6 4.6 1.4 1.4 4.6-4.6 4.6 4.6 1.4-1.4-4.6-4.6z"/></g></g></svg><svg width="20" height="20" viewBox="0 0 20 20" id="svgs--icon-search-close-x-mediumgray-hover" x="166" y="52" xmlns="http://www.w3.org/2000/svg"><title>img-search-close-x-hover-mediumgray</title><path d="M10 0C4.477 0 0 4.477 0 10s4.477 10 10 10 10-4.477 10-10S15.523 0 10 0zm6 14.588L14.588 16 10 11.412 5.412 16 4 14.588 8.588 10 4 5.412 5.412 4 10 8.588 14.588 4 16 5.412 11.412 10 16 14.588z" fill="#999"/></svg><svg width="12" height="12" viewBox="0 0 12 12" id="svgs--icon-search-close-x-mediumgray-no-padding" x="215" y="20" xmlns="http://www.w3.org/2000/svg"><title>img-search-close-x-mediumgray</title><g fill="none"><path d="M-4-4h20v20H-4z"/><path fill="#999" d="M12 1.412L10.588 0 6 4.588 1.412 0 0 1.412 4.588 6 0 10.588 1.412 12 6 7.412 10.588 12 12 10.588 7.412 6z"/></g></svg><svg width="239" height="20" viewBox="0 0 239 20" id="svgs--logo-rocket-lawyer-white-lg" xmlns="http://www.w3.org/2000/svg"><title>RocketLawyer®_logo_rlred</title><path d="M0 0h12.545c2.886 0 4.851.767 6.106 2.088 1.087 1.108 1.673 2.557 1.673 4.432v.043c0 2.94-1.506 4.857-3.848 5.88l4.433 6.648h-6.022l-3.763-5.796H8.865v5.796H3.638V3.153L0 0zm12.295 9.162c1.756 0 2.801-.895 2.801-2.259v-.042c0-1.492-1.087-2.259-2.801-2.259H8.907v4.603h3.388v-.043zm9.523.424v-.04C21.818 4.26 26.125 0 31.838 0c5.715 0 9.98 4.22 9.98 9.504v.041c0 5.285-4.306 9.546-10.02 9.546-5.756 0-9.98-4.22-9.98-9.505m14.741 0v-.04c0-2.663-1.946-4.958-4.762-4.958-2.815 0-4.679 2.254-4.679 4.916v.041c0 2.663 1.947 4.958 4.762 4.958 2.816 0 4.68-2.254 4.68-4.917m6.167.021v-.041C42.727 4.188 47.007 0 52.73 0c3.9 0 6.4 1.56 8.053 3.818L56.84 6.774c-1.101-1.314-2.33-2.176-4.153-2.176-2.67 0-4.535 2.176-4.535 4.845v.04c0 2.751 1.865 4.927 4.535 4.927 1.992 0 3.136-.903 4.28-2.217l3.942 2.751c-1.78 2.381-4.196 4.147-8.434 4.147-5.382.04-9.748-3.983-9.748-9.484m20-9.607h5.22v7.756L74.47 0h6.187l-7.155 8.224 7.407 10.867h-6.313l-4.714-7.074-1.936 2.13v4.944h-5.219zm20 0h15.327v4.517H87.95v2.855h9.128v4.176H87.95v3.068h10.232v4.475H82.727zm21.943 4.645h-5.58V0h16.365v4.645h-5.622V19.09h-5.163zm13.512 14.445V0h1.419v17.77h11.308v1.32zm32.066 0l-2.418-5.29h-11.2l-2.418 5.29h-1.485L141.594 0h1.358l8.866 19.09h-1.57zM142.23 1.525l-5.006 11.006h10.012L142.23 1.524zm29.258 17.565h-1.109L165 2.66l-5.42 16.43h-1.068L151.818.043h1.52l5.79 16.853L164.508 0h1.067l5.38 16.895 5.79-16.853h1.437zm17.832-7.584v7.585h-1.367v-7.543L180 0h1.698l6.96 10.27 7-10.27h1.615zM200 19.09V0h13.51v1.321h-12.112v7.5h10.883v1.278h-10.883v7.67h12.238v1.322zm30.949 0l-6.055-7.925h-6.224v7.926h-1.397V0h7.96c4.107 0 6.774 2.259 6.774 5.412v.043c0 3.196-2.37 5.028-5.546 5.454l6.266 8.182h-1.778zm-.296-13.593c0-2.557-1.99-4.176-5.462-4.176h-6.479v8.608h6.394c3.175 0 5.547-1.62 5.547-4.347v-.085zm3.892 12.723c0-1.023.788-1.856 1.837-1.856 1.013 0 1.8.833 1.8 1.817 0 .985-.787 1.818-1.837 1.818-.975.038-1.8-.795-1.8-1.78zm3.45 0c0-.91-.713-1.667-1.613-1.667-.937 0-1.612.757-1.612 1.666 0 .909.713 1.628 1.612 1.628.9 0 1.612-.72 1.612-1.628zm-2.362-1.023h.862c.262 0 .45.075.562.189.113.114.15.227.15.417 0 .302-.187.492-.45.568l.525.719h-.45l-.45-.682h-.375v.682h-.374v-1.893zm.862.946c.225 0 .375-.113.375-.303 0-.189-.15-.303-.375-.303h-.488v.606h.488z" fill="#FFF"/></svg><svg width="215" height="18" viewBox="0 0 215 18" id="svgs--logo-rocket-lawyer-white-med" y="20" xmlns="http://www.w3.org/2000/svg"><title>RocketLawyer®_logo_rlred</title><path d="M0 0h11.29c2.598 0 4.367.69 5.496 1.88.978.996 1.505 2.3 1.505 3.988v.038c0 2.647-1.355 4.372-3.462 5.293l3.99 5.983h-5.42l-3.388-5.216H7.98v5.216H3.274V2.838L0 0zm11.065 8.246c1.58 0 2.522-.806 2.522-2.033v-.038c0-1.343-.979-2.033-2.522-2.033H8.017v4.142h3.048v-.038zm8.571.382V8.59c0-4.755 3.876-8.59 9.019-8.59 5.143 0 8.981 3.798 8.981 8.554v.037c0 4.756-3.875 8.59-9.018 8.59-5.18 0-8.982-3.797-8.982-8.553m13.267 0V8.59c0-2.397-1.751-4.461-4.285-4.461-2.534 0-4.211 2.027-4.211 4.424v.037c0 2.397 1.751 4.461 4.285 4.461 2.534 0 4.211-2.028 4.211-4.424m5.552.019V8.61c0-4.84 3.852-8.61 9.001-8.61 3.51 0 5.76 1.404 7.248 3.436l-3.548 2.66c-.991-1.182-2.098-1.958-3.738-1.958-2.403 0-4.081 1.959-4.081 4.36v.037c0 2.476 1.678 4.434 4.081 4.434 1.793 0 2.823-.813 3.853-1.995l3.547 2.476c-1.602 2.143-3.776 3.732-7.59 3.732-4.845.036-8.773-3.585-8.773-8.536m18-8.646h4.697v6.98L67.022 0h5.569l-6.44 7.402 6.667 9.78h-5.682l-4.242-6.367-1.742 1.918v4.449h-4.697zm18 0h13.794v4.065h-9.094v2.57h8.215v3.758h-8.215v2.762h9.209v4.027h-13.91zm19.748 4.18h-5.021V0h14.727v4.18H98.85v13.002h-4.647zm12.161 13.002V0h1.277v15.993h10.177v1.189zm28.86 0l-2.177-4.762h-10.08l-2.176 4.762h-1.336L127.435 0h1.221l7.98 17.182h-1.412zm-7.217-15.81l-4.505 9.905h9.01l-4.505-9.906zm26.333 15.81h-.998L148.5 2.395l-4.879 14.787h-.96L136.636.038h1.368l5.211 15.167L148.056 0h.961l4.842 15.205L159.07.038h1.294zm16.048-6.827v6.827h-1.23v-6.789L162 0h1.528l6.263 9.243 6.3-9.243h1.454zM180 17.182V0h12.158v1.189h-10.9v6.75h9.795v1.15h-9.795v6.904h11.015v1.189zm27.854 0l-5.45-7.134h-5.601v7.134h-1.258V0h7.165c3.696 0 6.097 2.033 6.097 4.87v.04c0 2.876-2.134 4.525-4.992 4.908l5.64 7.364h-1.601zm-.267-12.235c0-2.3-1.79-3.758-4.916-3.758h-5.83v7.747h5.754c2.858 0 4.992-1.457 4.992-3.912v-.077zm3.503 11.45c0-.92.71-1.67 1.654-1.67.911 0 1.62.75 1.62 1.636 0 .886-.709 1.636-1.654 1.636-.877.034-1.62-.716-1.62-1.602zm3.105 0c0-.818-.641-1.5-1.45-1.5-.844 0-1.452.682-1.452 1.5s.641 1.466 1.451 1.466 1.45-.648 1.45-1.466zm-2.126-.92h.776c.237 0 .405.068.506.17.102.103.135.205.135.375 0 .273-.168.443-.404.511l.472.648h-.405l-.405-.613h-.337v.613h-.338v-1.704zm.776.852c.203 0 .338-.102.338-.273 0-.17-.135-.272-.338-.272h-.438v.545h.438z" fill="#FFF"/></svg><svg width="167" height="14" viewBox="0 0 167 14" id="svgs--logo-rocket-lawyer-white-sm" y="38" xmlns="http://www.w3.org/2000/svg"><title>RocketLawyer®_logo_rlred</title><path d="M0 0h8.782c2.02 0 3.395.537 4.274 1.462.76.775 1.17 1.79 1.17 3.102v.03c0 2.058-1.053 3.4-2.693 4.116l3.103 4.654h-4.215L7.787 9.307H6.206v4.057h-3.66V2.207L0 0zm8.606 6.413c1.23 0 1.961-.626 1.961-1.58v-.03c0-1.044-.76-1.581-1.96-1.581H6.234v3.221h2.371v-.03zm6.667.297v-.028c0-3.7 3.014-6.682 7.014-6.682s6.986 2.954 6.986 6.653v.029c0 3.7-3.015 6.682-7.015 6.682-4.029 0-6.985-2.954-6.985-6.654m10.319 0v-.028c0-1.864-1.363-3.47-3.334-3.47-1.97 0-3.275 1.577-3.275 3.441v.029c0 1.864 1.362 3.47 3.333 3.47s3.276-1.577 3.276-3.442m4.318.015v-.029c0-3.765 2.995-6.696 7-6.696 2.73 0 4.48 1.092 5.637 2.673l-2.759 2.069c-.771-.92-1.631-1.523-2.907-1.523-1.87 0-3.174 1.523-3.174 3.39v.03c0 1.925 1.305 3.448 3.174 3.448 1.394 0 2.195-.632 2.996-1.552l2.76 1.926c-1.247 1.667-2.938 2.902-5.904 2.902-3.768.03-6.824-2.787-6.824-6.638M43.91 0h3.652v5.429L52.13 0h4.33l-5.008 5.757 5.185 7.607h-4.419l-3.3-4.952-1.355 1.491v3.46H43.91zm14 0h10.728v3.162h-7.073V5.16h6.39v2.923h-6.39v2.148h7.162v3.132H57.91zm15.36 3.251h-3.906V0h11.454v3.251h-3.935v10.113H73.27zm9.457 10.113V0h.994v12.439h7.915v.925zm22.447 0L103.48 9.66h-7.84l-1.693 3.704H92.91L99.116 0h.95l6.207 13.364h-1.1zM99.56 1.067L96.057 8.77h7.008l-3.504-7.704zm20.482 12.297h-.776L115.5 1.863l-3.794 11.5h-.748L106.273.03h1.063l4.053 11.796L115.155 0h.747l3.766 11.826L123.721.03h1.006zm12.482-5.31v5.31h-.957v-5.28L126 0h1.189l4.871 7.189L136.96 0h1.13zm7.476 5.31V0h9.457v.925h-8.479v5.25h7.619v.895h-7.619v5.369h8.567v.925zm21.664 0l-4.238-5.549h-4.357v5.549h-.978V0h5.572c2.875 0 4.742 1.581 4.742 3.788v.03c0 2.237-1.66 3.52-3.882 3.818l4.386 5.728h-1.245zm-.207-9.516c0-1.79-1.393-2.923-3.824-2.923H153.1V6.95h4.475c2.223 0 3.883-1.133 3.883-3.042v-.06zm2.725 8.905c0-.715.55-1.298 1.286-1.298a1.273 1.273 0 0 1-.027 2.544c-.682.027-1.26-.556-1.26-1.246zm2.414 0c0-.636-.499-1.166-1.128-1.166-.656 0-1.129.53-1.129 1.166 0 .636.499 1.14 1.129 1.14s1.128-.504 1.128-1.14zm-1.653-.715h.603c.184 0 .315.053.394.132.079.08.105.16.105.292 0 .212-.131.344-.315.397l.367.504h-.314l-.315-.477h-.263v.477h-.262v-1.325zm.603.662c.158 0 .263-.08.263-.212s-.105-.212-.263-.212h-.34v.424h.34z" fill="#FFF"/></svg></svg>