<svg width="214" height="178" viewBox="0 0 214 178" xmlns="http://www.w3.org/2000/svg" xmlns:xlink="http://www.w3.org/1999/xlink"><svg width="148" height="44" viewBox="0 0 148 44" y="28" xmlns="http://www.w3.org/2000/svg"><title>google-play-badge-mobile</title><defs><linearGradient x1="91.488%" y1="4.948%" x2="-38.352%" y2="71.907%" id="a"><stop stop-color="#00A0FF" offset="0%"/><stop stop-color="#00A1FF" offset="1%"/><stop stop-color="#00BEFF" offset="26%"/><stop stop-color="#00D2FF" offset="51%"/><stop stop-color="#00DFFF" offset="76%"/><stop stop-color="#00E3FF" offset="100%"/></linearGradient><linearGradient x1="107.685%" y1="50%" x2="-130.64%" y2="50%" id="b"><stop stop-color="#FFE000" offset="0%"/><stop stop-color="#FFBD00" offset="41%"/><stop stop-color="#FFA500" offset="78%"/><stop stop-color="#FF9C00" offset="100%"/></linearGradient><linearGradient x1="86.219%" y1="17.877%" x2="-50.15%" y2="194.703%" id="c"><stop stop-color="#FF3A44" offset="0%"/><stop stop-color="#C31162" offset="100%"/></linearGradient><linearGradient x1="-18.754%" y1="-54.052%" x2="42.121%" y2="24.917%" id="d"><stop stop-color="#32A071" offset="0%"/><stop stop-color="#2DA771" offset="7%"/><stop stop-color="#15CF74" offset="48%"/><stop stop-color="#06E775" offset="80%"/><stop stop-color="#00F076" offset="100%"/></linearGradient></defs><g fill="none"><path d="M5.557 0h136.886A5.557 5.557 0 0 1 148 5.557v32.886A5.557 5.557 0 0 1 142.443 44H5.557A5.557 5.557 0 0 1 0 38.443V5.557A5.557 5.557 0 0 1 5.557 0z" fill="#000"/><path d="M51.354 11.042a3.289 3.289 0 0 1-.828 2.344 3.12 3.12 0 0 1-2.43 1.043c-1.399-.012-2.655-.913-3.188-2.286-.533-1.374-.237-2.953.749-4.006a3.217 3.217 0 0 1 2.44-1.055c.467-.002.929.098 1.358.293.4.17.755.44 1.038.785l-.586.621a2.152 2.152 0 0 0-1.81-.832 2.49 2.49 0 0 0-1.85.825 2.813 2.813 0 0 0-.723 1.987c-.014 1.117.606 2.135 1.571 2.577.966.444 2.089.227 2.846-.55.34-.39.535-.898.552-1.43h-2.396v-.842h3.213c.029.174.044.35.044.527zm5.056-2.929h-2.98v2.226h2.715v.844H53.43v2.226h2.98v.867h-3.864v-7.03h3.864v.867zm3.621 6.163h-.85V8.113h-1.854v-.867h4.603v.867h-1.899v6.163zm5.145 0v-7.03h.85v7.03h-.85zm4.626 0h-.85V8.113h-1.855v-.867h4.549v.867h-1.844v6.163zm10.466-.914c-1.343 1.419-3.514 1.419-4.857 0-1.303-1.463-1.303-3.75 0-5.214a3.326 3.326 0 0 1 2.429-1.072c.912 0 1.786.386 2.428 1.073 1.308 1.461 1.308 3.754 0 5.214zm-4.228-.585a2.447 2.447 0 0 0 3.6 0c.976-1.144.976-2.888 0-4.031a2.447 2.447 0 0 0-3.6 0c-.977 1.143-.977 2.887 0 4.03zm6.403 1.5V7.246h1.038l3.224 5.472V7.246h.85v7.03h-.883l-3.368-5.73v5.73h-.86z" stroke="#FFF" stroke-width=".51" fill="#FFF"/><path d="M74.23 24.529c-2.59.013-4.679 2.248-4.67 4.996.007 2.747 2.11 4.968 4.699 4.964 2.588-.004 4.685-2.233 4.685-4.98a5.07 5.07 0 0 0-1.363-3.55c-.888-.94-2.098-1.455-3.352-1.43zm0 8.003c-1.167.087-2.265-.592-2.77-1.712-.504-1.12-.312-2.454.485-3.363.797-.908 2.036-1.208 3.125-.755 1.089.452 1.806 1.566 1.809 2.807a2.988 2.988 0 0 1-.724 2.105 2.65 2.65 0 0 1-1.926.918zm-10.28-8.003c-2.59.007-4.684 2.239-4.68 4.988.004 2.749 2.106 4.974 4.695 4.972 2.59-.002 4.689-2.231 4.689-4.98a5.07 5.07 0 0 0-1.362-3.55c-.889-.94-2.099-1.455-3.352-1.43h.01zm0 8.003c-1.167.092-2.268-.584-2.775-1.703-.508-1.12-.319-2.455.476-3.366.796-.912 2.036-1.214 3.126-.762 1.09.452 1.81 1.566 1.812 2.808a2.988 2.988 0 0 1-.724 2.105 2.65 2.65 0 0 1-1.925.918h.01zm-12.243-6.468v2.11h4.77a4.55 4.55 0 0 1-1.105 2.66c-.964 1.042-2.3 1.604-3.676 1.546-2.927 0-5.3-2.518-5.3-5.625 0-3.106 2.373-5.624 5.3-5.624 1.344-.023 2.643.52 3.61 1.512l1.402-1.488c-1.32-1.418-3.123-2.209-5.001-2.192-2.673-.11-5.188 1.34-6.556 3.78a8.155 8.155 0 0 0 0 7.919c1.368 2.44 3.883 3.89 6.556 3.78 1.912.092 3.768-.699 5.09-2.168 1.156-1.348 1.774-3.121 1.722-4.944a7.288 7.288 0 0 0-.11-1.324l-6.702.058zm50.024 1.64c-.59-1.84-2.188-3.103-4.019-3.175-1.22-.002-2.388.531-3.224 1.475a4.86 4.86 0 0 0-1.192 3.505 5.037 5.037 0 0 0 1.333 3.54c.878.94 2.08 1.46 3.326 1.44 1.569.009 3.037-.819 3.908-2.203l-1.6-1.172c-.487.86-1.363 1.386-2.308 1.383-.979.04-1.88-.56-2.274-1.512l6.282-2.753-.232-.527zm-6.404 1.664a2.836 2.836 0 0 1 .65-1.999 2.516 2.516 0 0 1 1.801-.906c.728-.051 1.415.364 1.745 1.054l-4.196 1.851zm-5.1 4.828h2.064V19.549h-2.064v14.647zm-3.379-8.554h-.077a3.23 3.23 0 0 0-2.473-1.171c-2.506.129-4.475 2.323-4.475 4.985 0 2.663 1.97 4.857 4.475 4.986a3.122 3.122 0 0 0 2.473-1.172h.066v.715c0 1.91-.96 2.93-2.506 2.93-1.053-.027-1.986-.726-2.362-1.77l-1.8.797c.693 1.789 2.34 2.953 4.162 2.941 2.418 0 4.416-1.512 4.416-5.19v-8.87h-1.899v.82zm-2.362 6.89c-1.476-.138-2.609-1.45-2.609-3.023 0-1.573 1.133-2.885 2.609-3.023a2.594 2.594 0 0 1 1.853.95c.472.57.707 1.317.653 2.073a2.9 2.9 0 0 1-.65 2.083 2.57 2.57 0 0 1-1.867.94h.01zm26.916-12.983h-4.935v14.647h2.065v-5.554h2.881c1.604.122 3.138-.717 3.975-2.174a4.798 4.798 0 0 0 0-4.745c-.837-1.457-2.371-2.296-3.975-2.174h-.01zm0 7.03h-2.881v-4.99h2.925c1.308 0 2.368 1.124 2.368 2.512 0 1.389-1.06 2.514-2.368 2.514l-.044-.035zm12.73-2.108c-1.536-.098-2.98.781-3.677 2.238l1.833.808c.37-.722 1.105-1.145 1.877-1.078a1.907 1.907 0 0 1 1.476.452c.416.355.68.872.732 1.435v.152a4.35 4.35 0 0 0-2.153-.563c-1.976 0-3.975 1.172-3.975 3.293.04.914.426 1.772 1.07 2.378a3.077 3.077 0 0 0 2.353.844c1.059.081 2.075-.458 2.65-1.406h.066v1.172h1.987V28.56c0-2.566-1.833-4.054-4.184-4.054l-.055-.035zm-.254 8.026c-.674 0-1.612-.363-1.612-1.242 0-1.172 1.17-1.558 2.208-1.558a3.498 3.498 0 0 1 1.877.492c-.143 1.311-1.174 2.311-2.418 2.343l-.055-.035zm11.736-7.675l-2.363 6.35h-.066l-2.451-6.35h-2.208l3.676 8.882-2.098 4.933h2.153l5.653-13.815h-2.296zm-18.56 9.374h2.065V19.549h-2.064v14.647z" fill="#FFF"/><path d="M1.017 1.183a2.438 2.438 0 0 0-.508 1.64v25.919a2.438 2.438 0 0 0 .508 1.64l.077.082 13.679-14.506v-.34L1.093 1.102l-.076.082z" fill="url(#a)" transform="translate(9.51 6.696)"/><path d="M19.3 20.798l-4.527-4.84v-.34l4.526-4.85.1.058 5.42 3.27c1.546.925 1.546 2.448 0 3.386l-5.398 3.257-.122.059z" fill="url(#b)" transform="translate(9.51 6.696)"/><path d="M19.432 20.727l-4.66-4.944-13.755 14.6a1.72 1.72 0 0 0 2.296.07l16.13-9.726" fill="url(#c)" transform="translate(9.51 6.696)"/><path d="M19.432 10.838L3.302 1.112a1.72 1.72 0 0 0-2.296.07l13.767 14.6 4.659-4.944z" fill="url(#d)" transform="translate(9.51 6.696)"/><path d="M28.81 27.318l-15.999 9.667a1.76 1.76 0 0 1-2.208 0l-.077.082.077.082a1.749 1.749 0 0 0 2.208 0l16.13-9.726-.133-.105z" fill="#000" opacity=".2"/><path d="M10.527 36.914a2.438 2.438 0 0 1-.508-1.64v.176a2.438 2.438 0 0 0 .508 1.64l.077-.082-.077-.094zM34.33 24.002l-5.52 3.316.099.105 5.42-3.257c.627-.312 1.048-.956 1.105-1.687a2.166 2.166 0 0 1-1.104 1.523z" fill="#000" opacity=".12"/><path d="M12.812 7.972L34.33 20.956c.57.3.978.862 1.104 1.524-.057-.732-.478-1.376-1.104-1.688L12.812 7.808c-1.546-.925-2.804-.152-2.804 1.723v.176c.032-1.887 1.27-2.661 2.804-1.735z" fill="#FFF" opacity=".25"/></g></svg><svg width="148" height="44" viewBox="0 0 148 44" y="72" xmlns="http://www.w3.org/2000/svg"><title>app-store-badge-mobile</title><g fill="none"><path d="M143.738 43.363H4.268C1.911 43.363 0 41.418 0 39.016V4.352C0 1.952 1.912 0 4.267 0h139.47c2.358 0 4.262 1.952 4.262 4.352L148 39.016c0 2.402-1.905 4.347-4.262 4.347z" fill="#000"/><path d="M32.589 22.279c-.032-3.73 2.903-5.546 3.037-5.63-1.662-2.55-4.238-2.899-5.143-2.926-2.164-.24-4.263 1.362-5.365 1.362-1.125 0-2.822-1.34-4.651-1.3-2.354.038-4.557 1.473-5.765 3.7-2.492 4.54-.633 11.213 1.755 14.884 1.195 1.797 2.59 3.804 4.418 3.734 1.787-.078 2.455-1.2 4.612-1.2 2.138 0 2.765 1.2 4.628 1.155 1.919-.033 3.127-1.806 4.28-3.62 1.38-2.06 1.934-4.09 1.956-4.193-.045-.017-3.725-1.495-3.762-5.966zm-3.52-10.971c.962-1.265 1.62-2.986 1.437-4.733-1.392.065-3.132 1.013-4.134 2.25-.887 1.09-1.679 2.878-1.474 4.559 1.563.122 3.168-.83 4.171-2.076zm29.616 23.724h-2.524l-1.382-4.387h-4.805l-1.317 4.387h-2.456l4.76-14.937h2.94l4.784 14.937zm-4.323-6.227l-1.25-3.9c-.132-.399-.38-1.337-.746-2.814h-.044a109.5 109.5 0 0 1-.702 2.813l-1.228 3.9h3.97zm16.564.71c0 1.831-.49 3.279-1.47 4.342-.878.946-1.968 1.419-3.269 1.419-1.404 0-2.413-.51-3.028-1.529h-.044v5.674h-2.37V27.807c0-1.151-.03-2.333-.087-3.546h2.083l.133 1.708h.044c.79-1.287 1.99-1.929 3.598-1.929 1.258 0 2.308.502 3.148 1.507.842 1.005 1.262 2.327 1.262 3.967zm-2.413.087c0-1.048-.234-1.913-.702-2.593-.513-.71-1.2-1.064-2.063-1.064-.584 0-1.115.198-1.59.587a2.727 2.727 0 0 0-.932 1.541 3.18 3.18 0 0 0-.11.73v1.796c0 .783.238 1.444.713 1.984.476.54 1.094.81 1.854.81.892 0 1.586-.349 2.083-1.042.498-.695.747-1.611.747-2.75zm14.677-.087c0 1.831-.49 3.279-1.471 4.342-.877.946-1.967 1.419-3.268 1.419-1.404 0-2.413-.51-3.027-1.529h-.044v5.674h-2.37V27.807c0-1.151-.03-2.333-.087-3.546h2.083l.133 1.708h.044c.79-1.287 1.988-1.929 3.598-1.929 1.257 0 2.307.502 3.15 1.507.838 1.005 1.26 2.327 1.26 3.967zm-2.413.087c0-1.048-.235-1.913-.704-2.593-.512-.71-1.197-1.064-2.06-1.064-.586 0-1.116.198-1.592.587a2.721 2.721 0 0 0-.931 1.541c-.072.296-.11.539-.11.73v1.796c0 .783.238 1.444.711 1.984.476.539 1.093.81 1.856.81.892 0 1.586-.349 2.083-1.042.498-.695.747-1.611.747-2.75zm16.125 1.241c0 1.27-.437 2.305-1.313 3.103-.964.872-2.305 1.307-4.028 1.307-1.592 0-2.867-.31-3.833-.93l.55-1.995a6.445 6.445 0 0 0 3.424.954c.892 0 1.586-.204 2.085-.61.497-.407.745-.952.745-1.632 0-.606-.205-1.117-.615-1.531-.407-.414-1.089-.8-2.04-1.155-2.589-.976-3.882-2.404-3.882-4.283 0-1.228.453-2.235 1.361-3.019.905-.784 2.111-1.176 3.62-1.176 1.346 0 2.464.237 3.356.71l-.592 1.95c-.834-.458-1.776-.687-2.83-.687-.834 0-1.485.208-1.952.621-.394.37-.592.82-.592 1.353 0 .59.226 1.078.679 1.462.395.355 1.111.739 2.151 1.153 1.273.517 2.207 1.122 2.808 1.816.6.691.898 1.557.898 2.59zm7.833-4.786h-2.612v5.23c0 1.33.46 1.994 1.383 1.994a4.23 4.23 0 0 0 1.052-.11l.066 1.816c-.467.176-1.082.265-1.843.265-.935 0-1.667-.288-2.194-.864-.526-.577-.79-1.545-.79-2.904v-5.429h-1.556v-1.796h1.556v-1.972l2.326-.71v2.682h2.612v1.798zm11.781 3.501c0 1.656-.469 3.015-1.404 4.078-.981 1.094-2.284 1.64-3.907 1.64-1.565 0-2.81-.524-3.74-1.573-.928-1.048-1.393-2.371-1.393-3.966 0-1.67.478-3.037 1.437-4.1.957-1.064 2.248-1.596 3.872-1.596 1.564 0 2.823.525 3.773 1.574.909 1.018 1.362 2.332 1.362 3.943zm-2.458.078c0-.994-.21-1.846-.635-2.556-.497-.86-1.207-1.289-2.127-1.289-.952 0-1.676.43-2.172 1.289-.426.711-.636 1.577-.636 2.6 0 .994.21 1.846.636 2.555.512.86 1.228 1.289 2.15 1.289.905 0 1.615-.438 2.128-1.311.436-.724.656-1.585.656-2.577zm10.159-3.27a4.073 4.073 0 0 0-.747-.066c-.833 0-1.478.317-1.931.954-.395.561-.592 1.27-.592 2.127v5.651h-2.368l.022-7.379c0-1.241-.03-2.371-.089-3.39h2.063l.087 2.06h.066c.25-.708.644-1.278 1.184-1.706.528-.385 1.098-.577 1.712-.577.22 0 .417.016.593.044v2.282zm10.595 2.771c0 .429-.028.79-.087 1.086h-7.107c.028 1.064.371 1.877 1.031 2.439.6.501 1.374.753 2.325.753 1.052 0 2.012-.17 2.875-.51l.372 1.661c-1.01.445-2.2.666-3.575.666-1.653 0-2.951-.492-3.896-1.474-.942-.982-1.414-2.3-1.414-3.955 0-1.624.439-2.977 1.317-4.056.92-1.151 2.164-1.727 3.728-1.727 1.537 0 2.7.576 3.49 1.727.626.915.94 2.047.94 3.39zm-2.26-.62c.016-.71-.138-1.323-.46-1.84-.41-.666-1.04-.998-1.887-.998-.775 0-1.405.324-1.886.975-.394.518-.629 1.139-.701 1.861h4.935v.002zM53.367 10.824c0 1.32-.393 2.315-1.176 2.983-.726.616-1.758.925-3.094.925-.662 0-1.229-.03-1.704-.088V7.426c.62-.1 1.286-.152 2.007-.152 1.272 0 2.232.279 2.878.838.725.632 1.089 1.535 1.089 2.712zm-1.229.032c0-.856-.224-1.513-.673-1.97-.45-.457-1.105-.686-1.969-.686a4.86 4.86 0 0 0-.938.076v5.487c.144.023.406.033.787.033.892 0 1.58-.25 2.064-.751.485-.5.73-1.23.73-2.189zm7.741 1.122c0 .813-.23 1.48-.69 2.003-.483.538-1.122.806-1.92.806-.769 0-1.381-.257-1.838-.773-.456-.515-.684-1.165-.684-1.949 0-.82.235-1.492.706-2.013.471-.522 1.105-.784 1.903-.784.77 0 1.387.257 1.855.772.445.5.668 1.147.668 1.938zm-1.208.038c0-.488-.105-.907-.313-1.256-.244-.422-.592-.633-1.044-.633-.468 0-.824.21-1.069.633-.208.349-.312.774-.312 1.277 0 .488.105.907.312 1.256.253.422.604.633 1.058.633.444 0 .793-.214 1.044-.644.216-.356.324-.778.324-1.266zm9.941-2.64l-1.64 5.29h-1.067l-.68-2.297a17.335 17.335 0 0 1-.42-1.71h-.022a12.59 12.59 0 0 1-.421 1.71l-.722 2.298h-1.078L61.02 9.376h1.198l.592 2.515c.143.595.261 1.162.356 1.698h.02c.087-.442.23-1.005.433-1.687l.744-2.525h.949l.712 2.472c.173.602.313 1.183.42 1.742h.033a16.72 16.72 0 0 1 .356-1.742l.635-2.472h1.144v-.001zm6.038 5.291h-1.165v-3.03c0-.934-.351-1.401-1.056-1.401-.346 0-.625.128-.841.385-.215.257-.324.56-.324.907v3.138h-1.165v-3.778c0-.465-.014-.969-.042-1.514h1.024l.054.827h.033c.135-.257.337-.47.603-.639.316-.197.67-.297 1.056-.297.49 0 .896.16 1.22.479.402.392.603.977.603 1.753v3.17zm3.212 0h-1.164V6.948h1.164zm6.858-2.689c0 .813-.23 1.48-.69 2.003-.482.538-1.123.806-1.92.806-.77 0-1.382-.257-1.838-.773-.456-.515-.684-1.165-.684-1.949 0-.82.235-1.492.706-2.013.471-.522 1.105-.784 1.902-.784.77 0 1.387.257 1.856.772.445.5.668 1.147.668 1.938zm-1.21.038c0-.488-.104-.907-.311-1.256-.244-.422-.593-.633-1.044-.633-.47 0-.825.21-1.068.633-.21.349-.313.774-.313 1.277 0 .488.105.907.313 1.256.252.422.603.633 1.057.633.444 0 .792-.214 1.043-.644.217-.356.324-.778.324-1.266zm6.848 2.651h-1.046l-.087-.61h-.032c-.358.486-.868.73-1.53.73-.495 0-.895-.16-1.197-.48-.273-.289-.41-.65-.41-1.077 0-.646.267-1.139.804-1.48.536-.341 1.29-.509 2.26-.5v-.1c0-.697-.363-1.045-1.089-1.045a2.42 2.42 0 0 0-1.366.392l-.236-.772c.486-.304 1.088-.457 1.797-.457 1.37 0 2.056.73 2.056 2.189v1.947c0 .529.026.95.076 1.262zm-1.21-1.818v-.816c-1.284-.023-1.927.333-1.927 1.066 0 .276.074.483.224.62a.81.81 0 0 0 .569.207c.255 0 .494-.082.712-.245a1.003 1.003 0 0 0 .423-.832zm7.829 1.818h-1.035l-.054-.85h-.032c-.33.647-.893.97-1.683.97-.632 0-1.157-.25-1.574-.75-.417-.501-.625-1.151-.625-1.95 0-.856.226-1.55.68-2.08.438-.493.976-.74 1.616-.74.704 0 1.196.24 1.477.718h.022V6.948h1.166v6.293c0 .516.013.99.04 1.426zm-1.207-2.231v-.883a1.342 1.342 0 0 0-.453-1.083 1.138 1.138 0 0 0-.78-.288c-.434 0-.775.174-1.025.523-.248.349-.373.794-.373 1.339 0 .523.119.947.358 1.274.252.348.592.522 1.018.522.382 0 .688-.145.92-.436.225-.268.335-.591.335-.968zm11.169-.458c0 .813-.23 1.48-.69 2.003-.482.538-1.12.806-1.92.806-.767 0-1.38-.257-1.838-.773-.456-.515-.683-1.165-.683-1.949 0-.82.234-1.492.705-2.013.472-.522 1.105-.784 1.904-.784.768 0 1.388.257 1.854.772.445.5.668 1.147.668 1.938zm-1.207.038c0-.488-.104-.907-.312-1.256-.246-.422-.592-.633-1.046-.633-.467 0-.822.21-1.068.633-.21.349-.312.774-.312 1.277 0 .488.104.907.312 1.256.252.422.603.633 1.057.633.445 0 .795-.214 1.046-.644.214-.356.323-.778.323-1.266zm7.47 2.651h-1.163v-3.03c0-.934-.351-1.401-1.057-1.401-.346 0-.625.128-.84.385-.216.257-.324.56-.324.907v3.138h-1.166v-3.778c0-.465-.013-.969-.04-1.514h1.022l.054.827h.032a1.71 1.71 0 0 1 .604-.639c.317-.197.67-.297 1.057-.297.488 0 .895.16 1.218.479.404.392.604.977.604 1.753v3.17zm7.84-4.41h-1.282v2.57c0 .654.227.98.679.98.209 0 .382-.018.519-.055l.03.892c-.23.088-.533.132-.905.132-.46 0-.818-.142-1.077-.424-.26-.283-.389-.76-.389-1.427v-2.668h-.766v-.881h.766v-.97l1.142-.348v1.317h1.282v.882h.001zm6.167 4.41h-1.166v-3.008c0-.949-.351-1.423-1.055-1.423-.54 0-.909.275-1.111.825a1.492 1.492 0 0 0-.055.423v3.182h-1.164V6.948h1.164v3.189h.022c.367-.58.893-.87 1.574-.87.483 0 .882.16 1.199.48.394.398.592.99.592 1.774v3.146zm6.361-2.896c0 .211-.015.388-.043.533h-3.495c.016.523.183.922.506 1.198.296.247.677.37 1.144.37.517 0 .988-.083 1.413-.25l.182.817c-.497.218-1.082.327-1.759.327-.811 0-1.45-.242-1.912-.724-.465-.483-.695-1.13-.695-1.943 0-.798.214-1.463.647-1.992.451-.566 1.061-.849 1.831-.849.754 0 1.327.283 1.713.849.313.449.467 1.004.467 1.664zm-1.111-.304c.009-.35-.068-.65-.226-.904-.202-.326-.51-.49-.927-.49-.38 0-.69.16-.927.48a1.79 1.79 0 0 0-.346.914h2.426z" fill="#FFF"/></g></svg><svg width="164" height="28" viewBox="0 0 164 28" xmlns="http://www.w3.org/2000/svg"><title>★★★★★</title><path d="M14 .82l3.4 10.268h10.472l-8.364 6.46 3.434 10.302L14 21.322 5.092 27.85l3.4-10.302-8.364-6.46h10.438L14 .82zm34 0l3.4 10.268h10.472l-8.364 6.46 3.434 10.302L48 21.322l-8.908 6.528 3.4-10.302-8.364-6.46h10.438L48 .82zm34 0l3.4 10.268h10.472l-8.364 6.46 3.434 10.302L82 21.322l-8.908 6.528 3.4-10.302-8.364-6.46h10.438L82 .82zm34 0l3.4 10.268h10.472l-8.364 6.46 3.434 10.302L116 21.322l-8.908 6.528 3.4-10.302-8.364-6.46h10.438L116 .82zm34 0l3.4 10.268h10.472l-8.364 6.46 3.434 10.302L150 21.322l-8.908 6.528 3.4-10.302-8.364-6.46h10.438L150 .82z" fill="#00A98B" fill-rule="evenodd"/></svg><svg width="50" height="62" viewBox="0 0 50 62" x="164" xmlns="http://www.w3.org/2000/svg"><title>docs-icon</title><g fill="none"><path d="M44.473 53.884L43.533 5h4.017C48.903 5 50 6.108 50 7.475v52.05C50 60.892 48.903 62 47.55 62H7.45C6.097 62 5 60.892 5 59.525V56.62l37.037-.213c1.353-.008 2.444-1.123 2.436-2.49v-.034z" fill="#F9DFCC"/><path d="M3.228 3.257v50.486h39.544V3.257H3.228zM2.421 0H43.58A2.432 2.432 0 0 1 46 2.443v52.114A2.432 2.432 0 0 1 43.579 57H2.42A2.432 2.432 0 0 1 0 54.557V2.443A2.432 2.432 0 0 1 2.421 0z" fill="#F9DFCC"/><path d="M19.538 41.771l.002.052c.04 1.32.076 1.908.192 2.522.214 1.139.699 1.902 1.71 1.895 1.175-.007 1.729-.632 2.786-2.393l.06-.101c.349-.58.533-.86.726-1.08.003.15.002.34-.004.585l-.001.045c-.02.798-.011 1.126.08 1.532.182.807.723 1.373 1.57 1.355.308-.007.603-.094.887-.245.521-.277.949-.705 1.548-1.44l.378-.469c.727.94 2.273 1.484 4.624 1.951.605.12 1.223.226 1.993.344a141.606 141.606 0 0 0 .854.13c.309.047.512.079.686.108.538.092 1.046-.287 1.134-.845.088-.558-.277-1.085-.815-1.177-.188-.032-.4-.065-.719-.113l-.411-.062-.439-.067a44.414 44.414 0 0 1-1.912-.33c-2.08-.413-3.406-.972-3.489-1.287-.307-1.174-1.325-1.531-2.202-.84-.2.157-.39.357-.628.64-.122.146-.551.68-.563.694-.243.3-.443.523-.61.682 0-.135.003-.301.008-.51l.001-.045c.02-.796.006-1.169-.102-1.597-.208-.818-.79-1.368-1.653-1.334-1.098.044-1.631.65-2.617 2.291l-.06.101c-.404.673-.679 1.063-.867 1.261a3.503 3.503 0 0 1-.015-.072c-.087-.462-.12-.996-.157-2.193l-.001-.052c-.04-1.327-.073-1.88-.181-2.478-.204-1.13-.666-1.888-1.666-1.888-1.262 0-2.345 1.453-3.457 3.831-.874 1.868-1.513 3.875-1.463 4.796.03.565.496.997 1.04.966.545-.032.962-.515.932-1.08-.06-1.114 1.823-5.287 2.67-6.26.084.465.115.97.151 2.177z" fill="#E8845B"/><path d="M12.46 47.81a.92.92 0 0 1 0 1.203.797.797 0 0 1-1.208 0l-.807-.913-.806.912a.796.796 0 0 1-1.209 0 .92.92 0 0 1 0-1.203l.88-.994-.88-.995a.92.92 0 0 1 0-1.203.796.796 0 0 1 1.209 0l.806.913.807-.913a.796.796 0 0 1 1.208 0 .92.92 0 0 1 0 1.203l-.879.995.88.995zm2.156.56a.77.77 0 0 1 .754-.778h22.806c.416 0 .754.346.754.779a.77.77 0 0 1-.754.778H15.37a.765.765 0 0 1-.754-.778z" fill="#F9DFCC"/><path d="M30.795 30.737H9.232c-1.643 0-1.643-2.369 0-2.369h21.563c1.643 0 1.643 2.369 0 2.369zm7.455-5.527H9.234c-1.647 0-1.647-2.368 0-2.368h29.014c1.646 0 1.646 2.369 0 2.369zm0-6.315H9.234c-1.647 0-1.647-2.369 0-2.369h29.014c1.646 0 1.646 2.369 0 2.369zm0-5.527H9.234c-1.647 0-1.647-2.368 0-2.368h29.014c1.646 0 1.646 2.368 0 2.368z" fill="#DC4004"/></g></svg><svg width="59" height="62" viewBox="0 0 59 62" y="116" xmlns="http://www.w3.org/2000/svg"><title>esign-icon</title><defs><path id="e" d="M0 .003v16.766h58.633V.003z"/></defs><g fill="none" fill-rule="evenodd"><g fill-rule="nonzero" fill="#F9DFCC"><path d="M43.278 4.295c-.743 0-1.564.347-2.231 1.014L10.122 36.112c-1.78 1.774-3.02 4.601-3.773 6.91 2.212-.707 5.08-1.906 6.939-3.757L44.214 8.46c1.147-1.143 1.353-2.733.465-3.616-.371-.37-.866-.55-1.4-.55M3.498 47.903a2.048 2.048 0 0 1-2.016-2.394c.057-.324 1.443-8.004 5.742-12.287L38.15 2.42c2.77-2.763 6.912-2.968 9.426-.464 2.511 2.505 2.307 6.63-.466 9.394L16.184 42.153c-4.299 4.282-12.007 5.663-12.332 5.72-.117.02-.235.03-.352.03"/><path d="M35.815 8.41l6.429 6.43-26.745 26.744-6.429-6.43z"/></g><path d="M40.799 19.907l-8.517 8.64a2.046 2.046 0 0 0 0 2.861 1.972 1.972 0 0 0 2.82 0l14.314-14.525a2.042 2.042 0 0 0 0-2.86 1.972 1.972 0 0 0-2.818 0l-3.03 3.074L32.343 6.582a1.937 1.937 0 0 0-2.768 0 2.006 2.006 0 0 0 0 2.809L40.8 19.907z" fill="#E8845B" fill-rule="nonzero"/><path d="M13.5 40.44l-5.9-5.17a1.827 1.827 0 0 1 0-2.709 2.153 2.153 0 0 1 2.9 0l5.9 5.168c.8.748.8 1.962 0 2.71-.4.375-.925.561-1.45.561a2.12 2.12 0 0 1-1.45-.56z" fill="#F9DFCC" fill-rule="nonzero"/><g transform="translate(0 45)"><mask id="f" fill="#fff"><use xlink:href="#e"/></mask><path d="M35.105 16.345c-1.412-.854-2.036-2.827-1.482-4.695l1.866-6.298a52.539 52.539 0 0 0-6.306 7.02c-.87 1.159-2.257 1.634-3.526 1.223-1.472-.482-2.363-1.97-2.27-3.794.067-1.282.116-2.577.146-3.87a108.451 108.451 0 0 1-3.672 4.642c-.918 1.102-2.328 1.497-3.587 1.003-1.338-.527-2.152-1.904-2.124-3.524a72.023 72.023 0 0 0-10.847 6.762c-.878.662-2.158.525-2.859-.306-.701-.829-.556-2.037.323-2.698 4.14-3.115 8.512-5.77 12.99-7.892a3 3 0 0 1 2.97.208c.745.497 1.25 1.287 1.452 2.215a108.973 108.973 0 0 0 3.598-4.78C22.62.377 23.942-.126 25.235.249c1.47.426 2.413 1.868 2.399 3.67-.01 1.365-.042 2.737-.092 4.102A53.95 53.95 0 0 1 34.78.738c1.028-.847 2.404-.973 3.506-.317 1.424.849 2.055 2.824 1.499 4.697l-1.828 6.165c.49-.49.981-1.006 1.483-1.534 2.749-2.882 5.588-5.862 9.508-6.281 3.179-.344 6.097 1.164 8.775 2.839.936.586 1.193 1.778.571 2.661-.62.886-1.883 1.126-2.82.54-2.038-1.275-4.182-2.418-6.067-2.225-2.384.257-4.598 2.578-6.94 5.035-1.236 1.296-2.511 2.635-3.902 3.753a3.111 3.111 0 0 1-1.943.699 2.92 2.92 0 0 1-1.517-.424z" fill="#DC4004" fill-rule="nonzero" mask="url(#f)"/></g></g></svg></svg>