<?xml version="1.0" encoding="utf-8"?>
<!-- Generator: Adobe Illustrator 25.0.1, SVG Export Plug-In . SVG Version: 6.00 Build 0)  -->
<svg version="1.1" id="Layer_1" xmlns="http://www.w3.org/2000/svg" xmlns:xlink="http://www.w3.org/1999/xlink" x="0px" y="0px"
	 viewBox="0 0 183 25" style="enable-background:new 0 0 183 25;" xml:space="preserve">
<style type="text/css">
	.st0{fill:#666666;}
</style>
<path class="st0" d="M9.5,9c1.8-0.6,3.1-1.9,3.1-4c0-3.3-2.8-4.5-5.6-4.5H0v18.1h6.5c3.5,0,6.9-1.2,6.9-5.2
	C13.4,11.2,11.7,9.3,9.5,9z M3.2,3.2h2.7c2.4,0,3.5,0.8,3.5,2.4c0,1.3-1.1,2.2-3.2,2.2h-3C3.2,7.8,3.2,3.2,3.2,3.2z M6.2,15.8h-3
	v-5.2h3.1c2.6,0,3.9,0.7,3.9,2.6C10.2,15.6,7.9,15.8,6.2,15.8z M27.3,6c-3.7,0-6.7,2.6-6.7,6.5c0,3.8,3,6.4,6.7,6.4s6.7-2.6,6.7-6.4
	C34,8.6,31,6,27.3,6z M27.3,16.2c-1.5,0-2.8-0.9-3.4-2.3c-0.6-1.3-0.3-2.9,0.7-4c1.1-1.1,2.6-1.4,4-0.8c1.4,0.5,2.3,1.9,2.3,3.4
	c0.1,0.9-0.3,1.9-1,2.6C29.2,15.8,28.3,16.2,27.3,16.2z M42.1,6c-3.8,0-6.7,2.6-6.7,6.5c0,3.8,2.9,6.4,6.7,6.4
	c3.7,0,6.6-2.6,6.6-6.4C48.7,8.6,45.8,6,42.1,6z M42.1,16.2c-1.5,0-2.9-0.9-3.5-2.3c-0.6-1.3-0.3-2.9,0.7-4c1.1-1.1,2.7-1.4,4.1-0.8
	c1.4,0.5,2.3,1.9,2.3,3.4c0,0.9-0.4,1.9-1,2.6C44,15.8,43,16.2,42.1,16.2z M69.7,11.3v7.3h-3.1v-7c0-1.5-0.5-2.8-2.3-2.8
	c-1.9,0-2.6,1.6-2.6,3.1v6.7h-3.1v-7.3c0-1.5-0.6-2.5-2.1-2.5c-2,0-2.8,1.5-2.8,3.1v6.7h-3.1V6.3h3v1.9c0.7-1.4,2.2-2.3,3.8-2.2
	c1.9,0,3.2,0.7,3.8,2.3C62,6.8,63.6,5.9,65.3,6C68.5,6,69.7,8.3,69.7,11.3z M79.5,6c-1.6-0.1-3.2,0.6-4.2,1.9h-0.1V0.1h-3v18.5h2.9
	v-1.8c1,1.4,2.6,2.2,4.3,2.1c3.7,0,6-2.8,6-6.4C85.4,8.8,83,6,79.5,6z M78.7,16.2c-1.5,0-2.8-0.9-3.4-2.3c-0.6-1.3-0.3-2.9,0.7-4
	c1.1-1.1,2.7-1.4,4-0.8c1.4,0.5,2.3,1.9,2.3,3.4c0.1,0.9-0.3,1.9-1,2.6C80.6,15.8,79.7,16.2,78.7,16.2z M93.5,6
	c-3.7,0-6.7,2.6-6.7,6.5c0,3.8,3,6.4,6.7,6.4c2,0.1,3.9-0.9,5.2-2.5l-2.2-1.6c-0.8,1-2,1.7-3.3,1.6c-1.7,0.1-3.2-1.2-3.3-2.9h9.3
	v-0.8C99.2,8.4,96.9,6,93.5,6z M89.9,11.2c0.2-1.8,1.3-2.9,3.1-2.9c2,0,3.1,1.1,3.2,2.9C96.2,11.2,89.9,11.2,89.9,11.2z M108,6
	c0.4,0,0.7,0.1,1.1,0.2v3c-0.5-0.2-1-0.3-1.5-0.3c-0.8,0-1.7,0.3-2.3,0.9c-0.6,0.5-1,1.4-1,2.2v6.6h-3.1V6.3h3.1v2h0.1
	C105,6.8,106.5,6,108,6z M119.9,6.3v1.9h-0.1c-0.9-1.5-2.5-2.2-4.2-2.2c-3.8,0-6.1,2.8-6.1,6.5c0,3.4,2.5,6.3,6.1,6.3
	c1.6,0,3.1-0.7,4.1-1.8v0.9c0,2.4-0.9,4.1-3.9,4.1c-1.6,0-3.1-0.7-4.2-1.8l-1.8,2.5c1.7,1.6,3.8,2,6.1,2c4.7,0,6.9-2.8,6.9-7.2V6.3
	H119.9z M116.2,16c-0.9,0-1.9-0.4-2.5-1c-0.7-0.7-1.1-1.6-1.1-2.6s0.3-1.9,1-2.6c0.7-0.7,1.7-1.1,2.7-1c0.9-0.1,1.9,0.3,2.6,1
	s1.1,1.6,1,2.6c0.1,1-0.3,1.9-1,2.6C118.2,15.7,117.2,16.1,116.2,16L116.2,16z M18.6,18.6h-3.1V0h3.1V18.6z M133.8,0h3.2v15.2h7.7
	V18h-10.9V0z M154.8,16.5h-0.1c-0.4,0.6-0.9,1-1.5,1.3c-0.7,0.4-1.5,0.5-2.3,0.5c-0.5,0-1.1,0-1.6-0.2c-0.5-0.1-1-0.3-1.5-0.6
	c-0.4-0.3-0.8-0.7-1.1-1.2s-0.4-1.1-0.4-1.8c-0.1-0.8,0.2-1.6,0.8-2.2c0.5-0.5,1.2-0.9,2-1.2c0.9-0.3,1.8-0.5,2.7-0.6
	c1-0.1,2-0.1,2.9-0.1v-0.3c0-0.7-0.3-1.3-0.8-1.7c-0.6-0.4-1.3-0.6-2-0.5c-0.6,0-1.3,0.1-1.9,0.4c-0.5,0.2-1,0.6-1.4,1L147,7.4
	c0.7-0.6,1.5-1.1,2.4-1.4c0.9-0.4,1.8-0.5,2.8-0.5c0.9-0.1,1.8,0.1,2.7,0.4c0.6,0.3,1.2,0.7,1.6,1.2c0.4,0.5,0.7,1.1,0.9,1.7
	c0.1,0.6,0.2,1.2,0.2,1.8V18h-2.8L154.8,16.5L154.8,16.5z M154.7,12.5h-2.2c-0.6,0.1-1.1,0.1-1.5,0.3c-0.5,0.1-0.9,0.3-1.2,0.6
	s-0.5,0.7-0.5,1.1c0,0.2,0.1,0.5,0.2,0.7c0.2,0.2,0.3,0.4,0.6,0.5c0.2,0.1,0.4,0.2,0.6,0.2c0.3,0.1,0.5,0.1,0.8,0.1
	c0.9,0.1,1.7-0.2,2.4-0.8c0.6-0.6,0.9-1.4,0.8-2.3L154.7,12.5L154.7,12.5z M158.4,5.8h3.3l2.6,8.8l2.6-8.8h3.3l2.6,8.8h0.1l2.6-8.8
	h3.2L174.4,18h-3.1l-2.8-8.5l-2.8,8.5h-3.1L158.4,5.8z M182.4,7.1c0,0.5-0.3,1-0.8,1.2c-0.5,0.3-1.1,0.2-1.5-0.2
	c-0.4-0.4-0.5-1-0.3-1.5s0.7-0.8,1.2-0.8c0.4,0,0.7,0.1,1,0.3C182.2,6.4,182.4,6.7,182.4,7.1L182.4,7.1z M180,7.1
	c0,0.3,0.1,0.5,0.3,0.7s0.5,0.3,0.7,0.3c0.5,0,0.9-0.2,1-0.6c0.2-0.4,0.1-0.8-0.2-1.1c-0.3-0.4-0.7-0.4-1.1-0.3
	C180.3,6.3,180,6.7,180,7.1z M180.8,7.8h-0.3V6.5c0.2-0.1,0.4-0.1,0.5-0.1c0.2,0,0.4,0,0.5,0.1s0.1,0.2,0.1,0.3
	c0,0.2-0.1,0.3-0.2,0.3c0.1,0.1,0.2,0.2,0.2,0.3c0,0.1,0,0.2,0.1,0.3h-0.3c-0.1-0.1-0.1-0.2-0.1-0.3c0-0.1-0.1-0.2-0.3-0.2h-0.2
	C180.8,7.2,180.8,7.8,180.8,7.8z M180.8,7h0.2c0.1,0,0.3,0,0.3-0.2c0-0.1-0.1-0.2-0.3-0.2h-0.2C180.8,6.6,180.8,7,180.8,7z"/>
</svg>
