<svg id="Layer_1" data-name="Layer 1" xmlns="http://www.w3.org/2000/svg" viewBox="0 0 269.43 210.82"><defs><style>.cls-1{fill:#666;}</style></defs><path class="cls-1" d="M36.05,42.64C25.26,52.4,21.34,74.53,40.78,87.47l77.59,53.23L80.75,54.51C72.87,34.17,51.3,29.74,36.05,42.64" transform="translate(-0.77 -0.37)"/><path class="cls-1" d="M102.84.73C90.23,1,71.29,16,79.72,38.94l38.91,91.77L132.3,34.19c3.17-24-15-35.06-29.46-33.46" transform="translate(-0.77 -0.37)"/><path class="cls-1" d="M138.37,30.5h7.36s3.93,0,4.47,1.86c-2.9,2.36-10.78,2.66-9.73,15.29l12.36,83,38.65-92C199.38,18.14,182.79,1,168.07.46,167.39.41,166.7.37,166,.37c-13.21,0-28.35,9.6-27.61,30.13" transform="translate(-0.77 -0.37)"/><path class="cls-1" d="M189.92,55.29l-36.55,85.16,77.57-53.51c17.88-12.69,15-33,5-43-4.2-4.71-11.9-8.36-20.06-8.36-9.65,0-20,5.12-26,19.7" transform="translate(-0.77 -0.37)"/><path class="cls-1" d="M222.25,99.05l-72.84,50.88H239.1c18.4,0,30.23-19,25-36.38C260.55,102.6,250.13,94,238,94a28.49,28.49,0,0,0-15.79,5" transform="translate(-0.77 -0.37)"/><path class="cls-1" d="M34,149.93h88.37L49.47,99.05c-16.84-10.81-35.76-4.49-42.6,13.46C1.08,133.06,15.54,149.93,34,149.93" transform="translate(-0.77 -0.37)"/><path class="cls-1" d="M67.72,194.51c0,5.24-7.88,16.69-32.81,16.69-27,0-34.14-15.78-34.14-24.44,0-7.23,7.09-24,34.14-24S67.72,174,67.72,179.27H48.41s-.91-6-11.8-6-13.85,8.6-13.85,13.84,2.95,14.36,13.85,14.36,11.8-6.91,11.8-6.93Zm202.48,0c0,5.24-7.88,16.69-32.81,16.69-27,0-34.14-15.78-34.14-24.44,0-7.23,7.1-24,34.14-24S270.2,174,270.2,179.27H250.91s-.92-6-11.81-6-13.85,8.6-13.85,13.84,2.95,14.36,13.85,14.36,11.81-6.91,11.81-6.93Zm-91.95-31c2.89,0,21.7.9,21.7,11,0,7.1-6.6,10.76-9.75,10.76,0,0,11.42,1.84,11.42,10.64S194.92,210,178.25,210H143.59V163.55Zm-57.76,29.33V163.55h17.33V210H112.15L90.07,180.34V210H72.74V163.55H98ZM176,199v-.06c3.08,0,5.57-1.89,5.57-4.22s-2.49-4.22-5.57-4.22v0H161.58V199Zm-.4-19.43v0c2.36,0,4.27-1.53,4.27-3.45s-1.91-3.46-4.27-3.46v0H161.71v7Z" transform="translate(-0.77 -0.37)"/></svg>