<svg width="20" height="20" viewBox="0 0 20 20" xmlns="http://www.w3.org/2000/svg"><title>Shape</title><path d="M20 .398c0 2.033-.308 3.79-.925 5.272-.616 1.482-1.651 2.954-3.105 4.416a41.23 41.23 0 0 1-2.387 2.155l-.246 4.642a.447.447 0 0 1-.195.318l-4.703 2.744a.395.395 0 0 1-.196.049.439.439 0 0 1-.282-.11l-.784-.784a.39.39 0 0 1-.098-.392l1.04-3.38-3.44-3.442-3.381 1.041a.37.37 0 0 1-.11.012.38.38 0 0 1-.282-.11l-.784-.784c-.139-.154-.159-.314-.061-.478l2.743-4.702a.449.449 0 0 1 .319-.196l4.642-.246A41.024 41.024 0 0 1 9.92 4.036c1.535-1.528 2.996-2.58 4.385-3.16 1.388-.58 3.147-.87 5.279-.87.114 0 .212.039.294.116.08.078.122.17.122.276zm-3.087 4.36c.229-.229.343-.506.343-.833 0-.326-.114-.604-.343-.833a1.132 1.132 0 0 0-.832-.343c-.327 0-.604.115-.833.343a1.134 1.134 0 0 0-.343.833c0 .327.114.604.343.833.229.229.506.343.833.343.326 0 .604-.114.832-.343z" fill="#999" fill-rule="evenodd"/></svg>