<svg width="21" height="20" viewBox="0 0 21 20" xmlns="http://www.w3.org/2000/svg"><title>Shape</title><path d="M15.38 18.66C10.597 21.421 4.482 19.783 1.72 15-1.039 10.219.6 4.104 5.381 1.343 10.163-1.418 16.278.22 19.04 5.002 21.8 9.784 20.162 15.9 15.38 18.66zm1.928-12.658a8 8 0 1 0-13.855 8 8 8 0 0 0 13.855-8zm-7.06 8.943c-.506.982-1.065.895-1.25-.194l-.485-2.865-2.865-.485c-1.089-.185-1.176-.744-.194-1.25l8.11-4.178c.982-.506 1.368-.12.862.862l-4.178 8.11zm-2.329-4.584l1.976.143.143 1.976 2.125-4.244L7.92 10.36z" fill="#333" fill-rule="evenodd"/></svg>